<?xml version="1.0" encoding="UTF-8" standalone="no"?>
<!DOCTYPE svg PUBLIC "-//W3C//DTD SVG 1.1//EN"
 "http://www.w3.org/Graphics/SVG/1.1/DTD/svg11.dtd">
<!-- Generated by graphviz version 2.40.1 (20161225.0304)
 -->
<!-- Title: G Pages: 1 -->
<svg width="616pt" height="376pt"
 viewBox="0.00 0.00 616.00 376.00" xmlns="http://www.w3.org/2000/svg" xmlns:xlink="http://www.w3.org/1999/xlink">
<g id="graph0" class="graph" transform="scale(1 1) rotate(0) translate(4 372)">
<title>G</title>
<polygon fill="#ffffff" stroke="transparent" points="-4,4 -4,-372 612,-372 612,4 -4,4"/>
<g id="clust1" class="cluster">
<title>cluster_prg</title>
<polygon fill="none" stroke="#000000" points="8,-8 8,-60 600,-60 600,-8 8,-8"/>
</g>
<g id="clust2" class="cluster">
<title>cluster_stack</title>
<polygon fill="none" stroke="#000000" points="8,-68 8,-120 600,-120 600,-68 8,-68"/>
</g>
<g id="clust3" class="cluster">
<title>cluster_heap</title>
<polygon fill="none" stroke="#000000" points="8,-128 8,-360 600,-360 600,-128 8,-128"/>
</g>
<!-- prg -->
<g id="node1" class="node">
<title>prg</title>
<ellipse fill="none" stroke="#ffffff" cx="304" cy="-34" rx="288" ry="18"/>
<text text-anchor="middle" x="304" y="-38.2" font-family="Times,serif" font-size="14.00" fill="#000000">Program Area</text>
<text text-anchor="middle" x="304" y="-21.4" font-family="Times,serif" font-size="14.00" fill="#000000">Programmcode</text>
</g>
<!-- stack -->
<g id="node2" class="node">
<title>stack</title>
<ellipse fill="none" stroke="#ffffff" cx="304" cy="-94" rx="288" ry="18"/>
<text text-anchor="middle" x="304" y="-98.2" font-family="Times,serif" font-size="14.00" fill="#000000">Stack</text>
<text text-anchor="middle" x="304" y="-81.4" font-family="Times,serif" font-size="14.00" fill="#000000">nur einfache (primitive) Datentypen, limitierte Grösse</text>
</g>
<!-- heap -->
<g id="node3" class="node">
<title>heap</title>
<ellipse fill="none" stroke="#ffffff" cx="304" cy="-244" rx="288" ry="108"/>
<text text-anchor="middle" x="304" y="-248.2" font-family="Times,serif" font-size="14.00" fill="#000000">Heap</text>
<text text-anchor="middle" x="304" y="-231.4" font-family="Times,serif" font-size="14.00" fill="#000000">restlicher, ungeordneter Speicher</text>
</g>
</g>
</svg>
