<?xml version="1.0" encoding="UTF-8" standalone="no"?>
<!DOCTYPE svg PUBLIC "-//W3C//DTD SVG 1.1//EN"
 "http://www.w3.org/Graphics/SVG/1.1/DTD/svg11.dtd">
<!-- Generated by graphviz version 2.40.1 (20161225.0304)
 -->
<!-- Title: G Pages: 1 -->
<svg width="386pt" height="100pt"
 viewBox="0.00 0.00 386.49 100.00" xmlns="http://www.w3.org/2000/svg" xmlns:xlink="http://www.w3.org/1999/xlink">
<g id="graph0" class="graph" transform="scale(1 1) rotate(0) translate(4 96)">
<title>G</title>
<polygon fill="#ffffff" stroke="transparent" points="-4,4 -4,-96 382.4886,-96 382.4886,4 -4,4"/>
<!-- Indizes: -->
<g id="node1" class="node">
<title>Indizes:</title>
<text text-anchor="middle" x="36.4886" y="-68.1" font-family="Times,serif" font-size="18.00" fill="#ff0000">Indizes:</text>
</g>
<!-- Werte: -->
<g id="node2" class="node">
<title>Werte:</title>
<text text-anchor="middle" x="36.4886" y="-13.1" font-family="Times,serif" font-size="18.00" fill="#ff0000">Werte:</text>
</g>
<!-- Indizes:&#45;&gt;Werte: -->
<g id="edge1" class="edge">
<title>Indizes:&#45;&gt;Werte:</title>
<path fill="none" stroke="#ffffff" d="M36.4886,-55.4909C36.4886,-52.7653 36.4886,-49.898 36.4886,-47.0157"/>
<polygon fill="#ffffff" stroke="#ffffff" points="39.9887,-46.7378 36.4886,-36.7378 32.9887,-46.7378 39.9887,-46.7378"/>
</g>
<!-- arr -->
<g id="node3" class="node">
<title>arr</title>
<polygon fill="none" stroke="#000000" points="86.4886,-.5 86.4886,-36.5 374.4886,-36.5 374.4886,-.5 86.4886,-.5"/>
<text text-anchor="middle" x="109.4886" y="-13.1" font-family="Times,serif" font-size="18.00" fill="#000000">1</text>
<polyline fill="none" stroke="#000000" points="132.4886,-.5 132.4886,-36.5 "/>
<text text-anchor="middle" x="155.9886" y="-13.1" font-family="Times,serif" font-size="18.00" fill="#000000">5</text>
<polyline fill="none" stroke="#000000" points="179.4886,-.5 179.4886,-36.5 "/>
<text text-anchor="middle" x="202.4886" y="-13.1" font-family="Times,serif" font-size="18.00" fill="#000000">8</text>
<polyline fill="none" stroke="#000000" points="225.4886,-.5 225.4886,-36.5 "/>
<text text-anchor="middle" x="248.9886" y="-13.1" font-family="Times,serif" font-size="18.00" fill="#000000">3</text>
<polyline fill="none" stroke="#000000" points="272.4886,-.5 272.4886,-36.5 "/>
<text text-anchor="middle" x="295.4886" y="-13.1" font-family="Times,serif" font-size="18.00" fill="#000000">2</text>
<polyline fill="none" stroke="#000000" points="318.4886,-.5 318.4886,-36.5 "/>
<text text-anchor="middle" x="346.4886" y="-13.1" font-family="Times,serif" font-size="18.00" fill="#000000">10</text>
</g>
<!-- indices -->
<g id="node4" class="node">
<title>indices</title>
<polygon fill="none" stroke="#ffffff" points="90.4886,-55.5 90.4886,-91.5 378.4886,-91.5 378.4886,-55.5 90.4886,-55.5"/>
<text text-anchor="middle" x="114.4886" y="-68.1" font-family="Times,serif" font-size="18.00" fill="#000000">0</text>
<polyline fill="none" stroke="#ffffff" points="138.4886,-55.5 138.4886,-91.5 "/>
<text text-anchor="middle" x="162.4886" y="-68.1" font-family="Times,serif" font-size="18.00" fill="#000000">1</text>
<polyline fill="none" stroke="#ffffff" points="186.4886,-55.5 186.4886,-91.5 "/>
<text text-anchor="middle" x="210.4886" y="-68.1" font-family="Times,serif" font-size="18.00" fill="#000000">2</text>
<polyline fill="none" stroke="#ffffff" points="234.4886,-55.5 234.4886,-91.5 "/>
<text text-anchor="middle" x="258.4886" y="-68.1" font-family="Times,serif" font-size="18.00" fill="#000000">3</text>
<polyline fill="none" stroke="#ffffff" points="282.4886,-55.5 282.4886,-91.5 "/>
<text text-anchor="middle" x="306.4886" y="-68.1" font-family="Times,serif" font-size="18.00" fill="#000000">4</text>
<polyline fill="none" stroke="#ffffff" points="330.4886,-55.5 330.4886,-91.5 "/>
<text text-anchor="middle" x="354.4886" y="-68.1" font-family="Times,serif" font-size="18.00" fill="#000000">5</text>
</g>
</g>
</svg>
