<?xml version="1.0" encoding="UTF-8" standalone="no"?><svg xmlns="http://www.w3.org/2000/svg" xmlns:xlink="http://www.w3.org/1999/xlink" contentScriptType="application/ecmascript" contentStyleType="text/css" height="223px" preserveAspectRatio="none" style="width:578px;height:223px;" version="1.1" viewBox="0 0 578 223" width="578px" zoomAndPan="magnify"><defs><filter height="300%" id="f16" width="300%" x="-1" y="-1"><feGaussianBlur result="blurOut" stdDeviation="2.0"/><feColorMatrix in="blurOut" result="blurOut2" type="matrix" values="0 0 0 0 0 0 0 0 0 0 0 0 0 0 0 0 0 0 .4 0"/><feOffset dx="4.0" dy="4.0" in="blurOut2" result="blurOut3"/><feBlend in="SourceGraphic" in2="blurOut3" mode="normal"/></filter></defs><g><!--MD5=[d915aad2d8be754038301ab9b3e49da5]
class Medium--><rect fill="#FEFECE" filter="url(#f16)" height="65.9102" id="Medium" style="stroke: #A80036; stroke-width: 1.5;" width="94" x="57" y="14.5"/><ellipse cx="79.2" cy="30.5" fill="#ADD1B2" rx="11" ry="11" style="stroke: #A80036; stroke-width: 1.0;"/><path d="M81.6731,36.6431 Q81.0921,36.9419 80.4529,37.0913 Q79.8138,37.2407 79.1082,37.2407 Q76.6014,37.2407 75.2815,35.5889 Q73.9617,33.937 73.9617,30.8159 Q73.9617,27.6865 75.2815,26.0347 Q76.6014,24.3828 79.1082,24.3828 Q79.8138,24.3828 80.4612,24.5322 Q81.1087,24.6816 81.6731,24.9805 L81.6731,27.7031 Q81.0423,27.1221 80.4488,26.8523 Q79.8553,26.5825 79.2244,26.5825 Q77.8797,26.5825 77.1949,27.6492 Q76.5101,28.7158 76.5101,30.8159 Q76.5101,32.9077 77.1949,33.9744 Q77.8797,35.041 79.2244,35.041 Q79.8553,35.041 80.4488,34.7712 Q81.0423,34.5015 81.6731,33.9204 Z "/><text fill="#000000" font-family="sans-serif" font-size="12" lengthAdjust="spacingAndGlyphs" textLength="46" x="94.8" y="35.0352">Medium</text><line style="stroke: #A80036; stroke-width: 1.5;" x1="58" x2="150" y1="46.5" y2="46.5"/><text fill="#000000" font-family="sans-serif" font-size="11" lengthAdjust="spacingAndGlyphs" textLength="82" x="63" y="61.1348">barcode: String</text><text fill="#000000" font-family="sans-serif" font-size="11" lengthAdjust="spacingAndGlyphs" textLength="58" x="63" y="74.0898">titel: String</text><!--MD5=[4840bb0707ce43c4977391c7b4b38119]
class MediumExemplar--><rect fill="#FEFECE" filter="url(#f16)" height="52.9551" id="MediumExemplar" style="stroke: #A80036; stroke-width: 1.5;" width="133" x="186.5" y="21"/><ellipse cx="201.5" cy="37" fill="#ADD1B2" rx="11" ry="11" style="stroke: #A80036; stroke-width: 1.0;"/><path d="M203.9731,43.1431 Q203.3921,43.4419 202.7529,43.5913 Q202.1138,43.7407 201.4082,43.7407 Q198.9014,43.7407 197.5815,42.0889 Q196.2617,40.437 196.2617,37.3159 Q196.2617,34.1865 197.5815,32.5347 Q198.9014,30.8828 201.4082,30.8828 Q202.1138,30.8828 202.7612,31.0322 Q203.4087,31.1816 203.9731,31.4805 L203.9731,34.2031 Q203.3423,33.6221 202.7488,33.3523 Q202.1553,33.0825 201.5244,33.0825 Q200.1797,33.0825 199.4949,34.1492 Q198.8101,35.2158 198.8101,37.3159 Q198.8101,39.4077 199.4949,40.4744 Q200.1797,41.541 201.5244,41.541 Q202.1553,41.541 202.7488,41.2712 Q203.3423,41.0015 203.9731,40.4204 Z "/><text fill="#000000" font-family="sans-serif" font-size="12" lengthAdjust="spacingAndGlyphs" textLength="101" x="215.5" y="41.5352">MediumExemplar</text><line style="stroke: #A80036; stroke-width: 1.5;" x1="187.5" x2="318.5" y1="53" y2="53"/><text fill="#000000" font-family="sans-serif" font-size="11" lengthAdjust="spacingAndGlyphs" textLength="83" x="192.5" y="67.6348">exemplarNr: Int</text><!--MD5=[e5a534f499731948af20a60ef15bf856]
class Buch--><rect fill="#FEFECE" filter="url(#f16)" height="65.9102" id="Buch" style="stroke: #A80036; stroke-width: 1.5;" width="84" x="6" y="147"/><ellipse cx="32.25" cy="163" fill="#ADD1B2" rx="11" ry="11" style="stroke: #A80036; stroke-width: 1.0;"/><path d="M34.7231,169.1431 Q34.1421,169.4419 33.5029,169.5913 Q32.8638,169.7407 32.1582,169.7407 Q29.6514,169.7407 28.3315,168.0889 Q27.0117,166.437 27.0117,163.3159 Q27.0117,160.1865 28.3315,158.5347 Q29.6514,156.8828 32.1582,156.8828 Q32.8638,156.8828 33.5112,157.0322 Q34.1587,157.1816 34.7231,157.4805 L34.7231,160.2031 Q34.0923,159.6221 33.4988,159.3523 Q32.9053,159.0825 32.2744,159.0825 Q30.9297,159.0825 30.2449,160.1492 Q29.5601,161.2158 29.5601,163.3159 Q29.5601,165.4077 30.2449,166.4744 Q30.9297,167.541 32.2744,167.541 Q32.9053,167.541 33.4988,167.2712 Q34.0923,167.0015 34.7231,166.4204 Z "/><text fill="#000000" font-family="sans-serif" font-size="12" lengthAdjust="spacingAndGlyphs" textLength="27" x="48.75" y="167.5352">Buch</text><line style="stroke: #A80036; stroke-width: 1.5;" x1="7" x2="89" y1="179" y2="179"/><text fill="#000000" font-family="sans-serif" font-size="11" lengthAdjust="spacingAndGlyphs" textLength="72" x="12" y="193.6348">autor: Person</text><text fill="#000000" font-family="sans-serif" font-size="11" lengthAdjust="spacingAndGlyphs" textLength="61" x="12" y="206.5898">ISBN: String</text><!--MD5=[6d439a513acee906c4f9a2dd4f629010]
class DVD--><rect fill="#FEFECE" filter="url(#f16)" height="65.9102" id="DVD" style="stroke: #A80036; stroke-width: 1.5;" width="69" x="125.5" y="147"/><ellipse cx="145.45" cy="163" fill="#ADD1B2" rx="11" ry="11" style="stroke: #A80036; stroke-width: 1.0;"/><path d="M147.9231,169.1431 Q147.3421,169.4419 146.7029,169.5913 Q146.0638,169.7407 145.3582,169.7407 Q142.8514,169.7407 141.5315,168.0889 Q140.2117,166.437 140.2117,163.3159 Q140.2117,160.1865 141.5315,158.5347 Q142.8514,156.8828 145.3582,156.8828 Q146.0638,156.8828 146.7112,157.0322 Q147.3587,157.1816 147.9231,157.4805 L147.9231,160.2031 Q147.2923,159.6221 146.6988,159.3523 Q146.1053,159.0825 145.4744,159.0825 Q144.1297,159.0825 143.4449,160.1492 Q142.7601,161.2158 142.7601,163.3159 Q142.7601,165.4077 143.4449,166.4744 Q144.1297,167.541 145.4744,167.541 Q146.1053,167.541 146.6988,167.2712 Q147.2923,167.0015 147.9231,166.4204 Z "/><text fill="#000000" font-family="sans-serif" font-size="12" lengthAdjust="spacingAndGlyphs" textLength="26" x="160.55" y="167.5352">DVD</text><line style="stroke: #A80036; stroke-width: 1.5;" x1="126.5" x2="193.5" y1="179" y2="179"/><text fill="#000000" font-family="sans-serif" font-size="11" lengthAdjust="spacingAndGlyphs" textLength="57" x="131.5" y="193.6348">ean: String</text><text fill="#000000" font-family="sans-serif" font-size="11" lengthAdjust="spacingAndGlyphs" textLength="47" x="131.5" y="206.5898">Interpret</text><!--MD5=[0c8199344457f6d35f1c8b4c6eadcf3f]
class Benutzer--><rect fill="#FEFECE" filter="url(#f16)" height="78.8652" id="Benutzer" style="stroke: #A80036; stroke-width: 1.5;" width="97" x="470.5" y="8"/><ellipse cx="491.8" cy="24" fill="#ADD1B2" rx="11" ry="11" style="stroke: #A80036; stroke-width: 1.0;"/><path d="M494.2731,30.1431 Q493.6921,30.4419 493.0529,30.5913 Q492.4138,30.7407 491.7082,30.7407 Q489.2014,30.7407 487.8815,29.0889 Q486.5617,27.437 486.5617,24.3159 Q486.5617,21.1865 487.8815,19.5347 Q489.2014,17.8828 491.7082,17.8828 Q492.4138,17.8828 493.0612,18.0322 Q493.7087,18.1816 494.2731,18.4805 L494.2731,21.2031 Q493.6423,20.6221 493.0488,20.3523 Q492.4553,20.0825 491.8244,20.0825 Q490.4797,20.0825 489.7949,21.1492 Q489.1101,22.2158 489.1101,24.3159 Q489.1101,26.4077 489.7949,27.4744 Q490.4797,28.541 491.8244,28.541 Q492.4553,28.541 493.0488,28.2712 Q493.6423,28.0015 494.2731,27.4204 Z "/><text fill="#000000" font-family="sans-serif" font-size="12" lengthAdjust="spacingAndGlyphs" textLength="51" x="507.2" y="28.5352">Benutzer</text><line style="stroke: #A80036; stroke-width: 1.5;" x1="471.5" x2="566.5" y1="40" y2="40"/><text fill="#000000" font-family="sans-serif" font-size="11" lengthAdjust="spacingAndGlyphs" textLength="64" x="476.5" y="54.6348">name:String</text><text fill="#000000" font-family="sans-serif" font-size="11" lengthAdjust="spacingAndGlyphs" textLength="85" x="476.5" y="67.5898">vorname: String</text><text fill="#000000" font-family="sans-serif" font-size="11" lengthAdjust="spacingAndGlyphs" textLength="65" x="476.5" y="80.5449">login: String</text><!--MD5=[775d48757b4d0b196c8ef5a39d25b6a3]
class Ausleihe--><rect fill="#FEFECE" filter="url(#f16)" height="65.9102" id="Ausleihe" style="stroke: #A80036; stroke-width: 1.5;" width="80" x="355" y="14.5"/><ellipse cx="370" cy="30.5" fill="#ADD1B2" rx="11" ry="11" style="stroke: #A80036; stroke-width: 1.0;"/><path d="M372.4731,36.6431 Q371.8921,36.9419 371.2529,37.0913 Q370.6138,37.2407 369.9082,37.2407 Q367.4014,37.2407 366.0815,35.5889 Q364.7617,33.937 364.7617,30.8159 Q364.7617,27.6865 366.0815,26.0347 Q367.4014,24.3828 369.9082,24.3828 Q370.6138,24.3828 371.2612,24.5322 Q371.9087,24.6816 372.4731,24.9805 L372.4731,27.7031 Q371.8423,27.1221 371.2488,26.8523 Q370.6553,26.5825 370.0244,26.5825 Q368.6797,26.5825 367.9949,27.6492 Q367.3101,28.7158 367.3101,30.8159 Q367.3101,32.9077 367.9949,33.9744 Q368.6797,35.041 370.0244,35.041 Q370.6553,35.041 371.2488,34.7712 Q371.8423,34.5015 372.4731,33.9204 Z "/><text fill="#000000" font-family="sans-serif" font-size="12" lengthAdjust="spacingAndGlyphs" textLength="48" x="384" y="35.0352">Ausleihe</text><line style="stroke: #A80036; stroke-width: 1.5;" x1="356" x2="434" y1="46.5" y2="46.5"/><text fill="#000000" font-family="sans-serif" font-size="11" lengthAdjust="spacingAndGlyphs" textLength="50" x="361" y="61.1348">von: Date</text><text fill="#000000" font-family="sans-serif" font-size="11" lengthAdjust="spacingAndGlyphs" textLength="46" x="361" y="74.0898">bis: Date</text><!--MD5=[9b3021549fe4a8ad0ea3a5eebe6819be]
reverse link Medium to Buch--><path d="M87.968,85.4329 C79.7715,104.8264 69.8896,128.2078 62.0025,146.8691 " fill="none" id="Medium&lt;-Buch" style="stroke: #A80036; stroke-width: 1.0;"/><polygon fill="#A80036" points="90.0133,80.5936,82.8251,87.3263,88.0667,85.1991,90.1939,90.4408,90.0133,80.5936" style="stroke: #A80036; stroke-width: 1.0;"/><!--MD5=[6d3765d18f6eaba7ebf58dfd5b720db0]
reverse link Medium to DVD--><path d="M120.032,85.4329 C128.2285,104.8264 138.1104,128.2078 145.9975,146.8691 " fill="none" id="Medium&lt;-DVD" style="stroke: #A80036; stroke-width: 1.0;"/><polygon fill="#A80036" points="117.9867,80.5936,117.8061,90.4408,119.9333,85.1991,125.1749,87.3263,117.9867,80.5936" style="stroke: #A80036; stroke-width: 1.0;"/><!--MD5=[386a5311642fa4e549248836389624ba]
link Medium to MediumExemplar--><path d="M151.1445,47.5 C162.8155,47.5 174.4864,47.5 186.1573,47.5 " fill="none" id="Medium-MediumExemplar" style="stroke: #A80036; stroke-width: 1.0;"/><text fill="#000000" font-family="sans-serif" font-size="13" lengthAdjust="spacingAndGlyphs" textLength="8" x="158.976" y="43.9506">1</text><text fill="#000000" font-family="sans-serif" font-size="13" lengthAdjust="spacingAndGlyphs" textLength="6" x="172.5183" y="44.2675">*</text><!--MD5=[3f773951c4afd3e25888b577e85a36d6]
link Ausleihe to Benutzer--><path d="M435.2031,47.5 C446.878,47.5 458.5528,47.5 470.2276,47.5 " fill="none" id="Ausleihe-Benutzer" style="stroke: #A80036; stroke-width: 1.0;"/><text fill="#000000" font-family="sans-serif" font-size="13" lengthAdjust="spacingAndGlyphs" textLength="6" x="442.8987" y="43.7681">*</text><text fill="#000000" font-family="sans-serif" font-size="13" lengthAdjust="spacingAndGlyphs" textLength="8" x="454.4767" y="43.9995">1</text><!--MD5=[af657832572d305e1662d0a055cea1e5]
link MediumExemplar to Ausleihe--><path d="M319.5625,47.5 C331.3496,47.5 343.1367,47.5 354.9238,47.5 " fill="none" id="MediumExemplar-Ausleihe" style="stroke: #A80036; stroke-width: 1.0;"/><text fill="#000000" font-family="sans-serif" font-size="13" lengthAdjust="spacingAndGlyphs" textLength="6" x="327.6057" y="44.2217">*</text><text fill="#000000" font-family="sans-serif" font-size="13" lengthAdjust="spacingAndGlyphs" textLength="6" x="340.9816" y="43.7225">*</text><!--MD5=[381226544af8202521350e62116dfa92]
PlantUML version 1.2019.12(Sun Nov 03 11:24:54 CET 2019)
(GPL source distribution)
Java Runtime: Java(TM) SE Runtime Environment
JVM: Java HotSpot(TM) 64-Bit Server VM
Java Version: 1.8.0_77-b03
Operating System: Mac OS X
Default Encoding: UTF-8
Language: de
Country: CH
--></g></svg>