<?xml version="1.0" encoding="UTF-8" standalone="no"?><svg xmlns="http://www.w3.org/2000/svg" xmlns:xlink="http://www.w3.org/1999/xlink" contentScriptType="application/ecmascript" contentStyleType="text/css" height="135px" preserveAspectRatio="none" style="width:136px;height:135px;" version="1.1" viewBox="0 0 136 135" width="136px" zoomAndPan="magnify"><defs><filter height="300%" id="f16" width="300%" x="-1" y="-1"><feGaussianBlur result="blurOut" stdDeviation="2.0"/><feColorMatrix in="blurOut" result="blurOut2" type="matrix" values="0 0 0 0 0 0 0 0 0 0 0 0 0 0 0 0 0 0 .4 0"/><feOffset dx="4.0" dy="4.0" in="blurOut2" result="blurOut3"/><feBlend in="SourceGraphic" in2="blurOut3" mode="normal"/></filter></defs><g><!--MD5=[09ce52be0ee7de43c61b6e2d59bf108b]
class Person--><rect fill="#FEFECE" filter="url(#f16)" height="117.7305" id="Person" style="stroke: #A80036; stroke-width: 1.5;" width="118" x="7" y="7"/><ellipse cx="43.15" cy="23" fill="#ADD1B2" rx="11" ry="11" style="stroke: #A80036; stroke-width: 1.0;"/><path d="M45.6231,29.1431 Q45.0421,29.4419 44.4029,29.5913 Q43.7638,29.7407 43.0582,29.7407 Q40.5514,29.7407 39.2315,28.0889 Q37.9117,26.437 37.9117,23.3159 Q37.9117,20.1865 39.2315,18.5347 Q40.5514,16.8828 43.0582,16.8828 Q43.7638,16.8828 44.4112,17.0322 Q45.0587,17.1816 45.6231,17.4805 L45.6231,20.2031 Q44.9923,19.6221 44.3988,19.3523 Q43.8053,19.0825 43.1744,19.0825 Q41.8297,19.0825 41.1449,20.1492 Q40.4601,21.2158 40.4601,23.3159 Q40.4601,25.4077 41.1449,26.4744 Q41.8297,27.541 43.1744,27.541 Q43.8053,27.541 44.3988,27.2712 Q44.9923,27.0015 45.6231,26.4204 Z "/><text fill="#000000" font-family="sans-serif" font-size="12" lengthAdjust="spacingAndGlyphs" textLength="39" x="61.85" y="27.5352">Person</text><line style="stroke: #A80036; stroke-width: 1.5;" x1="8" x2="124" y1="39" y2="39"/><text fill="#000000" font-family="sans-serif" font-size="11" lengthAdjust="spacingAndGlyphs" textLength="67" x="13" y="53.6348">name: String</text><text fill="#000000" font-family="sans-serif" font-size="11" lengthAdjust="spacingAndGlyphs" textLength="85" x="13" y="66.5898">vorname: String</text><text fill="#000000" font-family="sans-serif" font-size="11" lengthAdjust="spacingAndGlyphs" textLength="106" x="13" y="79.5449">geburtsdatum: Date</text><text fill="#000000" font-family="sans-serif" font-size="11" lengthAdjust="spacingAndGlyphs" textLength="80" x="13" y="92.5">adresse: String</text><text fill="#000000" font-family="sans-serif" font-size="11" lengthAdjust="spacingAndGlyphs" textLength="54" x="13" y="105.4551">plz: String</text><text fill="#000000" font-family="sans-serif" font-size="11" lengthAdjust="spacingAndGlyphs" textLength="54" x="13" y="118.4102">ort: String</text><!--MD5=[381226544af8202521350e62116dfa92]
PlantUML version 1.2019.12(Sun Nov 03 11:24:54 CET 2019)
(GPL source distribution)
Java Runtime: Java(TM) SE Runtime Environment
JVM: Java HotSpot(TM) 64-Bit Server VM
Java Version: 1.8.0_77-b03
Operating System: Mac OS X
Default Encoding: UTF-8
Language: de
Country: CH
--></g></svg>