<?xml version="1.0" encoding="UTF-8" standalone="no"?><svg xmlns="http://www.w3.org/2000/svg" xmlns:xlink="http://www.w3.org/1999/xlink" contentScriptType="application/ecmascript" contentStyleType="text/css" height="316px" preserveAspectRatio="none" style="width:468px;height:316px;background:#00000000;" version="1.1" viewBox="0 0 468 316" width="468px" zoomAndPan="magnify"><defs/><g><text fill="#000000" font-family="sans-serif" font-size="18" lengthAdjust="spacingAndGlyphs" textLength="361" x="47" y="17.4023">relationale One-to-Many (1:n)-Beziehung</text><!--MD5=[1d56707d3e77e09d0bf9e516d488c376]
class medium--><rect codeLine="8" fill="#FEFECE" height="65.9102" id="medium" style="stroke:#A80036;stroke-width:1.5;" width="93" x="344.5" y="28.1992"/><ellipse cx="365.8" cy="44.1992" fill="#ADD1B2" rx="11" ry="11" style="stroke:#A80036;stroke-width:1.0;"/><path d="M369.4143,50.6992 L361.6945,50.6992 L361.6945,38.3062 L369.4143,38.3062 L369.4143,40.4644 L364.1433,40.4644 L364.1433,43.1372 L368.9162,43.1372 L368.9162,45.2954 L364.1433,45.2954 L364.1433,48.541 L369.4143,48.541 Z " fill="#000000"/><text fill="#000000" font-family="sans-serif" font-size="12" lengthAdjust="spacingAndGlyphs" textLength="47" x="381.2" y="48.7344">medium</text><line style="stroke:#A80036;stroke-width:1.5;" x1="345.5" x2="436.5" y1="60.1992" y2="60.1992"/><ellipse cx="355.5" cy="71.1992" fill="#000000" rx="3" ry="3" style="stroke:#000000;stroke-width:1.0;"/><text fill="#000000" font-family="sans-serif" font-size="11" lengthAdjust="spacingAndGlyphs" textLength="30" x="364.5" y="74.834">id: int</text><text fill="#000000" font-family="sans-serif" font-size="11" lengthAdjust="spacingAndGlyphs" textLength="67" x="364.5" y="87.7891">name: string</text><!--MD5=[17c25144eda05a5f47c910dd75cc4781]
class medium_exemplar--><rect codeLine="13" fill="#FEFECE" height="86.8652" id="medium_exemplar" style="stroke:#A80036;stroke-width:1.5;" width="140" x="321" y="188.6992"/><ellipse cx="336" cy="204.6992" fill="#ADD1B2" rx="11" ry="11" style="stroke:#A80036;stroke-width:1.0;"/><path d="M339.6143,211.1992 L331.8945,211.1992 L331.8945,198.8062 L339.6143,198.8062 L339.6143,200.9644 L334.3433,200.9644 L334.3433,203.6372 L339.1162,203.6372 L339.1162,205.7954 L334.3433,205.7954 L334.3433,209.041 L339.6143,209.041 Z " fill="#000000"/><text fill="#000000" font-family="sans-serif" font-size="12" lengthAdjust="spacingAndGlyphs" textLength="108" x="350" y="209.2344">medium_exemplar</text><line style="stroke:#A80036;stroke-width:1.5;" x1="322" x2="460" y1="220.6992" y2="220.6992"/><ellipse cx="332" cy="231.6992" fill="#000000" rx="3" ry="3" style="stroke:#000000;stroke-width:1.0;"/><text fill="#000000" font-family="sans-serif" font-size="11" lengthAdjust="spacingAndGlyphs" textLength="30" x="341" y="235.334">id: int</text><text fill="#000000" font-family="sans-serif" font-size="11" lengthAdjust="spacingAndGlyphs" textLength="88" x="341" y="248.2891">exemplar_nr: int</text><line style="stroke:#A80036;stroke-width:1.5;" x1="322" x2="460" y1="254.6094" y2="254.6094"/><text fill="#000000" font-family="sans-serif" font-size="11" font-weight="bold" lengthAdjust="spacingAndGlyphs" textLength="111" x="327" y="269.2441">medium_id: int (FK)</text><path d="M6,154.1992 L6,309.9941 A0,0 0 0 0 6,309.9941 L286,309.9941 A0,0 0 0 0 286,309.9941 L286,236.1992 L320.59,232.1992 L286,228.1992 L286,164.1992 L276,154.1992 L6,154.1992 A0,0 0 0 0 6,154.1992 " fill="#FBFB77" style="stroke:#A80036;stroke-width:1.0;"/><path d="M276,154.1992 L276,164.1992 L286,164.1992 L276,154.1992 " fill="#FBFB77" style="stroke:#A80036;stroke-width:1.0;"/><text fill="#000000" font-family="sans-serif" font-size="13" font-weight="bold" lengthAdjust="spacingAndGlyphs" textLength="104" x="12" y="171.7676">1:n-Beziehung:</text><line style="stroke:#A80036;stroke-width:1.0;" x1="7" x2="285" y1="174.5098" y2="174.5098"/><text fill="#000000" font-family="sans-serif" font-size="13" lengthAdjust="spacingAndGlyphs" textLength="100" x="12" y="191.0781">Wir haben einen</text><text fill="#000000" font-family="sans-serif" font-size="13" font-weight="bold" lengthAdjust="spacingAndGlyphs" textLength="84" x="116" y="191.0781">Foreign-Key</text><text fill="#000000" font-family="sans-serif" font-size="13" lengthAdjust="spacingAndGlyphs" textLength="44" x="12" y="206.3887">auf der</text><text fill="#000000" font-family="sans-serif" font-size="13" font-weight="bold" lengthAdjust="spacingAndGlyphs" textLength="61" x="60" y="206.3887">"n-Seite"</text><text fill="#000000" font-family="sans-serif" font-size="13" lengthAdjust="spacingAndGlyphs" textLength="4" x="121" y="206.3887">.</text><text fill="#000000" font-family="sans-serif" font-size="13" lengthAdjust="spacingAndGlyphs" textLength="30" x="12" y="221.6992">Hier:</text><text fill="#000000" font-family="sans-serif" font-size="13" font-weight="bold" lengthAdjust="spacingAndGlyphs" textLength="76" x="46" y="221.6992">medium_id</text><text fill="#000000" font-family="sans-serif" font-size="13" lengthAdjust="spacingAndGlyphs" textLength="142" x="126" y="221.6992">"zeigt" auf ein Medium</text><text fill="#000000" font-family="sans-serif" font-size="13" lengthAdjust="spacingAndGlyphs" textLength="150" x="12" y="237.0098">via dessen ID-Nummer.</text><text fill="#000000" font-family="sans-serif" font-size="13" lengthAdjust="spacingAndGlyphs" textLength="0" x="16" y="252.3203"/><text fill="#000000" font-family="sans-serif" font-size="13" lengthAdjust="spacingAndGlyphs" textLength="108" x="12" y="267.6309">--&gt; Dies ist also</text><text fill="#000000" font-family="sans-serif" font-size="13" font-weight="bold" lengthAdjust="spacingAndGlyphs" textLength="122" x="124" y="267.6309">genau umgekehrt</text><text fill="#000000" font-family="sans-serif" font-size="13" lengthAdjust="spacingAndGlyphs" textLength="21" x="250" y="267.6309">wie</text><text fill="#000000" font-family="sans-serif" font-size="13" lengthAdjust="spacingAndGlyphs" textLength="234" x="12" y="282.9414">im Objektmodell (dort haben wir eine</text><text fill="#000000" font-family="sans-serif" font-size="13" lengthAdjust="spacingAndGlyphs" textLength="230" x="12" y="298.252">Liste von Objekten auf der "1"-Seite)</text><!--MD5=[d7349ec0c37b4dca8046bd3377dd813b]
link medium to medium_exemplar--><path codeLine="31" d="M391,102.5192 C391,125.8492 391,155.4192 391,180.3292 " fill="none" id="medium-medium_exemplar" style="stroke:#A80036;stroke-width:1.0;"/><line style="stroke:#A80036;stroke-width:1.0;" x1="391" x2="397" y1="180.5892" y2="188.5892"/><line style="stroke:#A80036;stroke-width:1.0;" x1="391" x2="385" y1="180.5892" y2="188.5892"/><line style="stroke:#A80036;stroke-width:1.0;" x1="391" x2="391" y1="180.5892" y2="188.5892"/><line style="stroke:#A80036;stroke-width:1.0;" x1="395" x2="387" y1="178.5892" y2="178.5892"/><line style="stroke:#A80036;stroke-width:1.0;" x1="387" x2="395" y1="98.3892" y2="98.3892"/><line style="stroke:#A80036;stroke-width:1.0;" x1="387" x2="395" y1="101.3892" y2="101.3892"/><line style="stroke:#A80036;stroke-width:1.0;" x1="391" x2="391" y1="102.3892" y2="94.3892"/><text fill="#000000" font-family="sans-serif" font-size="13" lengthAdjust="spacingAndGlyphs" textLength="8" x="382.2375" y="114.7523">1</text><text fill="#000000" font-family="sans-serif" font-size="13" lengthAdjust="spacingAndGlyphs" textLength="8" x="382.3625" y="178.0474">n</text><!--MD5=[cbb8d61fdc9d5395e69df996a015f440]
PlantUML version 1.2020.26(Mon Dec 21 18:45:07 CET 2020)
(GPL source distribution)
Java Runtime: OpenJDK Runtime Environment
JVM: OpenJDK 64-Bit Server VM
Default Encoding: UTF-8
Language: en
Country: GB
--></g></svg>