<?xml version="1.0" encoding="UTF-8" standalone="no"?><svg xmlns="http://www.w3.org/2000/svg" xmlns:xlink="http://www.w3.org/1999/xlink" contentScriptType="application/ecmascript" contentStyleType="text/css" height="281px" preserveAspectRatio="none" style="width:866px;height:281px;background:#00000000;" version="1.1" viewBox="0 0 866 281" width="866px" zoomAndPan="magnify"><defs/><g><text fill="#000000" font-family="sans-serif" font-size="18" lengthAdjust="spacingAndGlyphs" textLength="378" x="237.5" y="17.4023">relationale Many-to-Many (n:m)-Beziehung</text><!--MD5=[7876e0f90fcb5d11ea441d671a99ebd2]
class kategorie--><rect codeLine="77" fill="#FEFECE" height="65.9102" id="kategorie" style="stroke:#A80036;stroke-width:1.5;" width="93" x="409.5" y="118.1992"/><ellipse cx="427.65" cy="134.1992" fill="#ADD1B2" rx="11" ry="11" style="stroke:#A80036;stroke-width:1.0;"/><path d="M431.2643,140.6992 L423.5445,140.6992 L423.5445,128.3062 L431.2643,128.3062 L431.2643,130.4644 L425.9933,130.4644 L425.9933,133.1372 L430.7662,133.1372 L430.7662,135.2954 L425.9933,135.2954 L425.9933,138.541 L431.2643,138.541 Z " fill="#000000"/><text fill="#000000" font-family="sans-serif" font-size="12" lengthAdjust="spacingAndGlyphs" textLength="54" x="442.35" y="138.7344">kategorie</text><line style="stroke:#A80036;stroke-width:1.5;" x1="410.5" x2="501.5" y1="150.1992" y2="150.1992"/><ellipse cx="420.5" cy="161.1992" fill="#000000" rx="3" ry="3" style="stroke:#000000;stroke-width:1.0;"/><text fill="#000000" font-family="sans-serif" font-size="11" lengthAdjust="spacingAndGlyphs" textLength="30" x="429.5" y="164.834">id: int</text><text fill="#000000" font-family="sans-serif" font-size="11" lengthAdjust="spacingAndGlyphs" textLength="67" x="429.5" y="177.7891">name: string</text><!--MD5=[1d56707d3e77e09d0bf9e516d488c376]
class medium--><rect codeLine="81" fill="#FEFECE" height="78.8652" id="medium" style="stroke:#A80036;stroke-width:1.5;" width="84" x="775" y="111.6992"/><ellipse cx="792.25" cy="127.6992" fill="#ADD1B2" rx="11" ry="11" style="stroke:#A80036;stroke-width:1.0;"/><path d="M795.8643,134.1992 L788.1445,134.1992 L788.1445,121.8062 L795.8643,121.8062 L795.8643,123.9644 L790.5933,123.9644 L790.5933,126.6372 L795.3662,126.6372 L795.3662,128.7954 L790.5933,128.7954 L790.5933,132.041 L795.8643,132.041 Z " fill="#000000"/><text fill="#000000" font-family="sans-serif" font-size="12" lengthAdjust="spacingAndGlyphs" textLength="47" x="806.75" y="132.2344">medium</text><line style="stroke:#A80036;stroke-width:1.5;" x1="776" x2="858" y1="143.6992" y2="143.6992"/><ellipse cx="786" cy="154.6992" fill="#000000" rx="3" ry="3" style="stroke:#000000;stroke-width:1.0;"/><text fill="#000000" font-family="sans-serif" font-size="11" lengthAdjust="spacingAndGlyphs" textLength="30" x="795" y="158.334">id: int</text><text fill="#000000" font-family="sans-serif" font-size="11" lengthAdjust="spacingAndGlyphs" textLength="58" x="795" y="171.2891">titel: string</text><text fill="#000000" font-family="sans-serif" font-size="11" lengthAdjust="spacingAndGlyphs" textLength="32" x="795" y="184.2441">nr: int</text><!--MD5=[88e3761ca9dc2005083e8f7a019ffa09]
class medium_kategorie--><rect codeLine="87" fill="#FEFECE" height="65.9102" id="medium_kategorie" style="stroke:#A80036;stroke-width:1.5;" width="139" x="571.5" y="118.1992"/><ellipse cx="586.5" cy="134.1992" fill="#ADD1B2" rx="11" ry="11" style="stroke:#A80036;stroke-width:1.0;"/><path d="M590.1143,140.6992 L582.3945,140.6992 L582.3945,128.3062 L590.1143,128.3062 L590.1143,130.4644 L584.8433,130.4644 L584.8433,133.1372 L589.6162,133.1372 L589.6162,135.2954 L584.8433,135.2954 L584.8433,138.541 L590.1143,138.541 Z " fill="#000000"/><text fill="#000000" font-family="sans-serif" font-size="12" lengthAdjust="spacingAndGlyphs" textLength="107" x="600.5" y="138.7344">medium_kategorie</text><line style="stroke:#A80036;stroke-width:1.5;" x1="572.5" x2="709.5" y1="150.1992" y2="150.1992"/><ellipse cx="582.5" cy="161.1992" fill="#000000" rx="3" ry="3" style="stroke:#000000;stroke-width:1.0;"/><text fill="#000000" font-family="sans-serif" font-size="11" lengthAdjust="spacingAndGlyphs" textLength="110" x="591.5" y="164.834">kategorie_id: int (FK)</text><ellipse cx="582.5" cy="174.1543" fill="#000000" rx="3" ry="3" style="stroke:#000000;stroke-width:1.0;"/><text fill="#000000" font-family="sans-serif" font-size="11" lengthAdjust="spacingAndGlyphs" textLength="103" x="591.5" y="177.7891">medium_id: int (FK)</text><path d="M6,27.1992 L6,274.8574 A0,0 0 0 0 6,274.8574 L374,274.8574 A0,0 0 0 0 374,274.8574 L374,155.1992 L409.33,151.1992 L374,147.1992 L374,37.1992 L364,27.1992 L6,27.1992 A0,0 0 0 0 6,27.1992 " fill="#FBFB77" style="stroke:#A80036;stroke-width:1.0;"/><path d="M364,27.1992 L364,37.1992 L374,37.1992 L364,27.1992 " fill="#FBFB77" style="stroke:#A80036;stroke-width:1.0;"/><text fill="#000000" font-family="sans-serif" font-size="13" font-weight="bold" lengthAdjust="spacingAndGlyphs" textLength="108" x="12" y="44.7676">n:m-Beziehung:</text><line style="stroke:#A80036;stroke-width:1.0;" x1="7" x2="373" y1="47.5098" y2="47.5098"/><text fill="#000000" font-family="sans-serif" font-size="13" lengthAdjust="spacingAndGlyphs" textLength="326" x="12" y="64.0781">Im Gegensatz zur objektorientierten n:m-Beziehung</text><text fill="#000000" font-family="sans-serif" font-size="13" lengthAdjust="spacingAndGlyphs" textLength="297" x="12" y="79.3887">brauchen wir bei relationalen n:m-Beziehungen</text><text fill="#000000" font-family="sans-serif" font-size="13" font-weight="bold" lengthAdjust="spacingAndGlyphs" textLength="44" x="12" y="94.6992">immer</text><text fill="#000000" font-family="sans-serif" font-size="13" lengthAdjust="spacingAndGlyphs" textLength="205" x="60" y="94.6992">eine Zwischentabelle, welche die</text><text fill="#000000" font-family="sans-serif" font-size="13" lengthAdjust="spacingAndGlyphs" textLength="248" x="12" y="110.0098">beiden Entitäten miteinander verbindet.</text><text fill="#000000" font-family="sans-serif" font-size="13" lengthAdjust="spacingAndGlyphs" textLength="0" x="16" y="125.3203"/><text fill="#000000" font-family="sans-serif" font-size="13" lengthAdjust="spacingAndGlyphs" textLength="248" x="12" y="140.6309">Auf den beiden unabhängigen Entitäten</text><text fill="#000000" font-family="sans-serif" font-size="13" lengthAdjust="spacingAndGlyphs" textLength="278" x="12" y="155.9414">sind keine Beziehungs-Attribute vorhanden.</text><text fill="#000000" font-family="sans-serif" font-size="13" lengthAdjust="spacingAndGlyphs" textLength="0" x="16" y="171.252"/><text fill="#000000" font-family="sans-serif" font-size="13" lengthAdjust="spacingAndGlyphs" textLength="126" x="12" y="186.5625">Die Zwischentabelle</text><text fill="#000000" font-family="sans-serif" font-size="13" font-weight="bold" lengthAdjust="spacingAndGlyphs" textLength="127" x="142" y="186.5625">medium_kategorie</text><text fill="#000000" font-family="sans-serif" font-size="13" lengthAdjust="spacingAndGlyphs" textLength="24" x="273" y="186.5625">hier</text><text fill="#000000" font-family="sans-serif" font-size="13" lengthAdjust="spacingAndGlyphs" textLength="128" x="12" y="201.873">"zeigt" wiederum via</text><text fill="#000000" font-family="sans-serif" font-size="13" font-weight="bold" lengthAdjust="spacingAndGlyphs" textLength="87" x="144" y="201.873">Foreign Keys</text><text fill="#000000" font-family="sans-serif" font-size="13" lengthAdjust="spacingAndGlyphs" textLength="20" x="235" y="201.873">auf</text><text fill="#000000" font-family="sans-serif" font-size="13" font-weight="bold" lengthAdjust="spacingAndGlyphs" textLength="38" x="12" y="217.1836">beide</text><text fill="#000000" font-family="sans-serif" font-size="13" lengthAdjust="spacingAndGlyphs" textLength="111" x="54" y="217.1836">anderen Tabellen.</text><text fill="#000000" font-family="sans-serif" font-size="13" lengthAdjust="spacingAndGlyphs" textLength="0" x="16" y="232.4941"/><text fill="#000000" font-family="sans-serif" font-size="13" lengthAdjust="spacingAndGlyphs" textLength="300" x="12" y="247.8047">Zusätzlich können noch Assoziations-Attribute</text><text fill="#000000" font-family="sans-serif" font-size="13" lengthAdjust="spacingAndGlyphs" textLength="347" x="12" y="263.1152">festgehalten werden (bsp: Hauptkategorie für Medium).</text><!--MD5=[a4cce93c05d5ff14aa19790eaa02a2f5]
link medium_kategorie to medium--><path codeLine="111" d="M718.77,151.1992 C735.02,151.1992 751.75,151.1992 766.69,151.1992 " fill="none" id="medium_kategorie-medium" style="stroke:#A80036;stroke-width:1.0;"/><line style="stroke:#A80036;stroke-width:1.0;" x1="763.79" x2="774.79" y1="151.1992" y2="151.1992"/><ellipse cx="763.79" cy="151.1992" fill="none" rx="4" ry="4" style="stroke:#A80036;stroke-width:1.0;"/><line style="stroke:#A80036;stroke-width:1.0;" x1="770.79" x2="770.79" y1="147.1992" y2="155.1992"/><line style="stroke:#A80036;stroke-width:1.0;" x1="718.56" x2="710.56" y1="151.1992" y2="157.1992"/><line style="stroke:#A80036;stroke-width:1.0;" x1="718.56" x2="710.56" y1="151.1992" y2="145.1992"/><line style="stroke:#A80036;stroke-width:1.0;" x1="718.56" x2="710.56" y1="151.1992" y2="151.1992"/><line style="stroke:#A80036;stroke-width:1.0;" x1="720.56" x2="720.56" y1="155.1992" y2="147.1992"/><text fill="#000000" font-family="sans-serif" font-size="13" lengthAdjust="spacingAndGlyphs" textLength="0" x="756.75" y="144.7676"/><text fill="#000000" font-family="sans-serif" font-size="13" lengthAdjust="spacingAndGlyphs" textLength="8" x="718.6056" y="147.9692">n</text><text fill="#000000" font-family="sans-serif" font-size="13" lengthAdjust="spacingAndGlyphs" textLength="8" x="759.1365" y="147.5623">1</text><!--MD5=[7b9fe062546c81c7012e72427b3e720e]
link kategorie to medium_kategorie--><path codeLine="112" d="M510.91,151.1992 C527.32,151.1992 545.63,151.1992 563.22,151.1992 " fill="none" id="kategorie-medium_kategorie" style="stroke:#A80036;stroke-width:1.0;"/><line style="stroke:#A80036;stroke-width:1.0;" x1="563.24" x2="571.24" y1="151.1992" y2="145.1992"/><line style="stroke:#A80036;stroke-width:1.0;" x1="563.24" x2="571.24" y1="151.1992" y2="157.1992"/><line style="stroke:#A80036;stroke-width:1.0;" x1="563.24" x2="571.24" y1="151.1992" y2="151.1992"/><line style="stroke:#A80036;stroke-width:1.0;" x1="561.24" x2="561.24" y1="147.1992" y2="155.1992"/><line style="stroke:#A80036;stroke-width:1.0;" x1="513.68" x2="502.68" y1="151.1992" y2="151.1992"/><ellipse cx="513.68" cy="151.1992" fill="none" rx="4" ry="4" style="stroke:#A80036;stroke-width:1.0;"/><line style="stroke:#A80036;stroke-width:1.0;" x1="506.68" x2="506.68" y1="155.1992" y2="147.1992"/><text fill="#000000" font-family="sans-serif" font-size="13" lengthAdjust="spacingAndGlyphs" textLength="0" x="553" y="144.7676"/><text fill="#000000" font-family="sans-serif" font-size="13" lengthAdjust="spacingAndGlyphs" textLength="8" x="510.4404" y="147.6498">1</text><text fill="#000000" font-family="sans-serif" font-size="13" lengthAdjust="spacingAndGlyphs" textLength="8" x="555.6335" y="148.0148">n</text><!--MD5=[cbb8d61fdc9d5395e69df996a015f440]
PlantUML version 1.2020.26(Mon Dec 21 18:45:07 CET 2020)
(GPL source distribution)
Java Runtime: OpenJDK Runtime Environment
JVM: OpenJDK 64-Bit Server VM
Default Encoding: UTF-8
Language: en
Country: GB
--></g></svg>