<?xml version="1.0" encoding="UTF-8" standalone="no"?><svg xmlns="http://www.w3.org/2000/svg" xmlns:xlink="http://www.w3.org/1999/xlink" contentScriptType="application/ecmascript" contentStyleType="text/css" height="362px" preserveAspectRatio="none" style="width:632px;height:362px;background:#00000000;" version="1.1" viewBox="0 0 632 362" width="632px" zoomAndPan="magnify"><defs/><g><text fill="#000000" font-family="sans-serif" font-size="18" lengthAdjust="spacingAndGlyphs" textLength="350" x="134.5" y="17.4023">relationale One-to-One (1:1)-Beziehung</text><!--MD5=[aa0c2778fb5f96eb4f6c19897dbd02c6]
class person--><rect codeLine="41" fill="#FEFECE" height="86.8652" id="person" style="stroke:#A80036;stroke-width:1.5;" width="195" x="430" y="84.6992"/><ellipse cx="503.25" cy="100.6992" fill="#ADD1B2" rx="11" ry="11" style="stroke:#A80036;stroke-width:1.0;"/><path d="M506.8643,107.1992 L499.1445,107.1992 L499.1445,94.8062 L506.8643,94.8062 L506.8643,96.9644 L501.5933,96.9644 L501.5933,99.6372 L506.3662,99.6372 L506.3662,101.7954 L501.5933,101.7954 L501.5933,105.041 L506.8643,105.041 Z " fill="#000000"/><text fill="#000000" font-family="sans-serif" font-size="12" lengthAdjust="spacingAndGlyphs" textLength="40" x="523.75" y="105.2344">person</text><line style="stroke:#A80036;stroke-width:1.5;" x1="431" x2="624" y1="116.6992" y2="116.6992"/><ellipse cx="441" cy="127.6992" fill="#000000" rx="3" ry="3" style="stroke:#000000;stroke-width:1.0;"/><text fill="#000000" font-family="sans-serif" font-size="11" lengthAdjust="spacingAndGlyphs" textLength="30" x="450" y="131.334">id: int</text><text fill="#000000" font-family="sans-serif" font-size="11" lengthAdjust="spacingAndGlyphs" textLength="67" x="450" y="144.2891">name: string</text><line style="stroke:#A80036;stroke-width:1.5;" x1="431" x2="624" y1="150.6094" y2="150.6094"/><text fill="#000000" font-family="sans-serif" font-size="11" font-weight="bold" lengthAdjust="spacingAndGlyphs" textLength="183" x="436" y="165.2441">benutzer_id: int (FK, Unique Key)</text><!--MD5=[d75d0150bde946e2aa7fe43afeb99925]
class benutzer--><rect codeLine="47" fill="#FEFECE" height="65.9102" id="benutzer" style="stroke:#A80036;stroke-width:1.5;" width="93" x="481" y="289.1992"/><ellipse cx="500.05" cy="305.1992" fill="#ADD1B2" rx="11" ry="11" style="stroke:#A80036;stroke-width:1.0;"/><path d="M503.6643,311.6992 L495.9445,311.6992 L495.9445,299.3062 L503.6643,299.3062 L503.6643,301.4644 L498.3933,301.4644 L498.3933,304.1372 L503.1662,304.1372 L503.1662,306.2954 L498.3933,306.2954 L498.3933,309.541 L503.6643,309.541 Z " fill="#000000"/><text fill="#000000" font-family="sans-serif" font-size="12" lengthAdjust="spacingAndGlyphs" textLength="52" x="514.95" y="309.7344">benutzer</text><line style="stroke:#A80036;stroke-width:1.5;" x1="482" x2="573" y1="321.1992" y2="321.1992"/><ellipse cx="492" cy="332.1992" fill="#000000" rx="3" ry="3" style="stroke:#000000;stroke-width:1.0;"/><text fill="#000000" font-family="sans-serif" font-size="11" lengthAdjust="spacingAndGlyphs" textLength="30" x="501" y="335.834">id: int</text><text fill="#000000" font-family="sans-serif" font-size="11" lengthAdjust="spacingAndGlyphs" textLength="67" x="501" y="348.7891">name: string</text><path d="M6,27.1992 L6,228.9258 A0,0 0 0 0 6,228.9258 L395,228.9258 A0,0 0 0 0 395,228.9258 L395,132.1992 L429.9,128.1992 L395,124.1992 L395,37.1992 L385,27.1992 L6,27.1992 A0,0 0 0 0 6,27.1992 " fill="#FBFB77" style="stroke:#A80036;stroke-width:1.0;"/><path d="M385,27.1992 L385,37.1992 L395,37.1992 L385,27.1992 " fill="#FBFB77" style="stroke:#A80036;stroke-width:1.0;"/><text fill="#000000" font-family="sans-serif" font-size="13" font-weight="bold" lengthAdjust="spacingAndGlyphs" textLength="104" x="12" y="44.7676">1:1-Beziehung:</text><line style="stroke:#A80036;stroke-width:1.0;" x1="7" x2="394" y1="47.5098" y2="47.5098"/><text fill="#000000" font-family="sans-serif" font-size="13" lengthAdjust="spacingAndGlyphs" textLength="237" x="12" y="64.0781">Fast identisch mit der 1:n-Beziehung:</text><text fill="#000000" font-family="sans-serif" font-size="13" lengthAdjust="spacingAndGlyphs" textLength="0" x="16" y="79.3887"/><text fill="#000000" font-family="sans-serif" font-size="13" lengthAdjust="spacingAndGlyphs" textLength="134" x="12" y="94.6992">Wir haben auch einen</text><text fill="#000000" font-family="sans-serif" font-size="13" font-weight="bold" lengthAdjust="spacingAndGlyphs" textLength="84" x="150" y="94.6992">Foreign-Key</text><text fill="#000000" font-family="sans-serif" font-size="13" lengthAdjust="spacingAndGlyphs" textLength="44" x="12" y="110.0098">auf der</text><text fill="#000000" font-family="sans-serif" font-size="13" font-weight="bold" lengthAdjust="spacingAndGlyphs" textLength="103" x="60" y="110.0098">einen "1-Seite"</text><text fill="#000000" font-family="sans-serif" font-size="13" lengthAdjust="spacingAndGlyphs" textLength="4" x="163" y="110.0098">.</text><text fill="#000000" font-family="sans-serif" font-size="13" lengthAdjust="spacingAndGlyphs" textLength="30" x="12" y="125.3203">Hier:</text><text fill="#000000" font-family="sans-serif" font-size="13" font-weight="bold" lengthAdjust="spacingAndGlyphs" textLength="82" x="46" y="125.3203">benutzer_id</text><text fill="#000000" font-family="sans-serif" font-size="13" lengthAdjust="spacingAndGlyphs" textLength="198" x="132" y="125.3203">"zeigt" auf ein Benutzer-Eintrag</text><text fill="#000000" font-family="sans-serif" font-size="13" lengthAdjust="spacingAndGlyphs" textLength="150" x="12" y="140.6309">via dessen ID-Nummer.</text><text fill="#000000" font-family="sans-serif" font-size="13" lengthAdjust="spacingAndGlyphs" textLength="0" x="16" y="155.9414"/><text fill="#000000" font-family="sans-serif" font-size="13" lengthAdjust="spacingAndGlyphs" textLength="65" x="12" y="171.252">Zusätzlich</text><text fill="#000000" font-family="sans-serif" font-size="13" font-weight="bold" lengthAdjust="spacingAndGlyphs" textLength="62" x="81" y="171.252">schützen</text><text fill="#000000" font-family="sans-serif" font-size="13" lengthAdjust="spacingAndGlyphs" textLength="98" x="147" y="171.252">wir das Attribut</text><text fill="#000000" font-family="sans-serif" font-size="13" font-weight="bold" lengthAdjust="spacingAndGlyphs" textLength="82" x="249" y="171.252">benutzer_id</text><text fill="#000000" font-family="sans-serif" font-size="13" lengthAdjust="spacingAndGlyphs" textLength="4" x="331" y="171.252">,</text><text fill="#000000" font-family="sans-serif" font-size="13" lengthAdjust="spacingAndGlyphs" textLength="368" x="12" y="186.5625">damit nicht mehrmals dieselbe ID verwendet werden kann:</text><text fill="#000000" font-family="sans-serif" font-size="13" lengthAdjust="spacingAndGlyphs" textLength="336" x="12" y="201.873">Eine Person und ein Benutzer können nur miteinander</text><text fill="#000000" font-family="sans-serif" font-size="13" lengthAdjust="spacingAndGlyphs" textLength="114" x="12" y="217.1836">verknüpft werden.</text><!--MD5=[2bebee0c994f789815b51bef13cd0726]
link person to benutzer--><path codeLine="67" d="M527.5,179.0592 C527.5,211.0892 527.5,252.1092 527.5,281.8392 " fill="none" id="person-benutzer" style="stroke:#A80036;stroke-width:1.0;"/><line style="stroke:#A80036;stroke-width:1.0;" x1="531.5" x2="523.5" y1="285.1492" y2="285.1492"/><line style="stroke:#A80036;stroke-width:1.0;" x1="531.5" x2="523.5" y1="282.1492" y2="282.1492"/><line style="stroke:#A80036;stroke-width:1.0;" x1="527.5" x2="527.5" y1="281.1492" y2="289.1492"/><line style="stroke:#A80036;stroke-width:1.0;" x1="523.5" x2="531.5" y1="175.8092" y2="175.8092"/><line style="stroke:#A80036;stroke-width:1.0;" x1="523.5" x2="531.5" y1="178.8092" y2="178.8092"/><line style="stroke:#A80036;stroke-width:1.0;" x1="527.5" x2="527.5" y1="179.8092" y2="171.8092"/><text fill="#000000" font-family="sans-serif" font-size="13" lengthAdjust="spacingAndGlyphs" textLength="8" x="518.8875" y="192.2379">1</text><text fill="#000000" font-family="sans-serif" font-size="13" lengthAdjust="spacingAndGlyphs" textLength="8" x="518.675" y="278.3954">1</text><!--MD5=[cbb8d61fdc9d5395e69df996a015f440]
PlantUML version 1.2020.26(Mon Dec 21 18:45:07 CET 2020)
(GPL source distribution)
Java Runtime: OpenJDK Runtime Environment
JVM: OpenJDK 64-Bit Server VM
Default Encoding: UTF-8
Language: en
Country: GB
--></g></svg>