<?xml version="1.0" encoding="UTF-8" standalone="no"?><svg xmlns="http://www.w3.org/2000/svg" xmlns:xlink="http://www.w3.org/1999/xlink" contentScriptType="application/ecmascript" contentStyleType="text/css" height="100px" preserveAspectRatio="none" style="width:471px;height:100px;background:#00000000;" version="1.1" viewBox="0 0 471 100" width="471px" zoomAndPan="magnify"><defs/><g><!--MD5=[d915aad2d8be754038301ab9b3e49da5]
class Medium--><rect codeLine="96" fill="#FEFECE" height="86.8652" id="Medium" style="stroke:#A80036;stroke-width:1.5;" width="228" x="7" y="7"/><ellipse cx="93.75" cy="23" fill="#ADD1B2" rx="11" ry="11" style="stroke:#A80036;stroke-width:1.0;"/><path d="M96.2231,29.1431 Q95.6421,29.4419 95.0029,29.5913 Q94.3638,29.7407 93.6582,29.7407 Q91.1514,29.7407 89.8315,28.0889 Q88.5117,26.437 88.5117,23.3159 Q88.5117,20.1865 89.8315,18.5347 Q91.1514,16.8828 93.6582,16.8828 Q94.3638,16.8828 95.0112,17.0322 Q95.6587,17.1816 96.2231,17.4805 L96.2231,20.2031 Q95.5923,19.6221 94.9988,19.3523 Q94.4053,19.0825 93.7744,19.0825 Q92.4297,19.0825 91.7449,20.1492 Q91.0601,21.2158 91.0601,23.3159 Q91.0601,25.4077 91.7449,26.4744 Q92.4297,27.541 93.7744,27.541 Q94.4053,27.541 94.9988,27.2712 Q95.5923,27.0015 96.2231,26.4204 Z " fill="#000000"/><text fill="#000000" font-family="sans-serif" font-size="12" lengthAdjust="spacingAndGlyphs" textLength="46" x="114.25" y="27.5352">Medium</text><line style="stroke:#A80036;stroke-width:1.5;" x1="8" x2="234" y1="39" y2="39"/><text fill="#000000" font-family="sans-serif" font-size="11" lengthAdjust="spacingAndGlyphs" textLength="191" x="13" y="53.6348">exemplare: List&lt;MediumExemplar&gt;</text><line style="stroke:#A80036;stroke-width:1.5;" x1="8" x2="234" y1="59.9551" y2="59.9551"/><text fill="#000000" font-family="sans-serif" font-size="11" lengthAdjust="spacingAndGlyphs" textLength="216" x="13" y="74.5898">getExemplare(): List&lt;MediumExemplar&gt;</text><text fill="#000000" font-family="sans-serif" font-size="11" lengthAdjust="spacingAndGlyphs" textLength="112" x="13" y="87.5449">addMedium(Medium)</text><!--MD5=[4840bb0707ce43c4977391c7b4b38119]
class MediumExemplar--><rect codeLine="102" fill="#FEFECE" height="52.9551" id="MediumExemplar" style="stroke:#A80036;stroke-width:1.5;" width="133" x="331.5" y="24"/><ellipse cx="346.5" cy="40" fill="#ADD1B2" rx="11" ry="11" style="stroke:#A80036;stroke-width:1.0;"/><path d="M348.9731,46.1431 Q348.3921,46.4419 347.7529,46.5913 Q347.1138,46.7407 346.4082,46.7407 Q343.9014,46.7407 342.5815,45.0889 Q341.2617,43.437 341.2617,40.3159 Q341.2617,37.1865 342.5815,35.5347 Q343.9014,33.8828 346.4082,33.8828 Q347.1138,33.8828 347.7612,34.0322 Q348.4087,34.1816 348.9731,34.4805 L348.9731,37.2031 Q348.3423,36.6221 347.7488,36.3523 Q347.1553,36.0825 346.5244,36.0825 Q345.1797,36.0825 344.4949,37.1492 Q343.8101,38.2158 343.8101,40.3159 Q343.8101,42.4077 344.4949,43.4744 Q345.1797,44.541 346.5244,44.541 Q347.1553,44.541 347.7488,44.2712 Q348.3423,44.0015 348.9731,43.4204 Z " fill="#000000"/><text fill="#000000" font-family="sans-serif" font-size="12" lengthAdjust="spacingAndGlyphs" textLength="101" x="360.5" y="44.5352">MediumExemplar</text><line style="stroke:#A80036;stroke-width:1.5;" x1="332.5" x2="463.5" y1="56" y2="56"/><text fill="#000000" font-family="sans-serif" font-size="11" lengthAdjust="spacingAndGlyphs" textLength="107" x="337.5" y="70.6348">exemplarNr: Integer</text><!--MD5=[01655f81a692c9025af1bdbb4dd061ee]
reverse link Medium to MediumExemplar--><path codeLine="106" d="M248.35,50.5 C276.96,50.5 306.22,50.5 331.18,50.5 " fill="none" id="Medium-backto-MediumExemplar" style="stroke:#A80036;stroke-width:1.0;"/><polygon fill="#A80036" points="235.27,50.5,241.27,54.5,247.27,50.5,241.27,46.5,235.27,50.5" style="stroke:#A80036;stroke-width:1.0;"/><text fill="#000000" font-family="sans-serif" font-size="13" lengthAdjust="spacingAndGlyphs" textLength="0" x="313.25" y="44.0684"/><text fill="#000000" font-family="sans-serif" font-size="13" lengthAdjust="spacingAndGlyphs" textLength="8" x="242.8467" y="47.6022">1</text><text fill="#000000" font-family="sans-serif" font-size="13" lengthAdjust="spacingAndGlyphs" textLength="6" x="317.5434" y="47.2675">*</text><!--MD5=[cbb8d61fdc9d5395e69df996a015f440]
PlantUML version 1.2020.26(Mon Dec 21 18:45:07 CET 2020)
(GPL source distribution)
Java Runtime: OpenJDK Runtime Environment
JVM: OpenJDK 64-Bit Server VM
Default Encoding: UTF-8
Language: en
Country: GB
--></g></svg>