<?xml version="1.0" encoding="UTF-8" standalone="no"?><svg xmlns="http://www.w3.org/2000/svg" xmlns:xlink="http://www.w3.org/1999/xlink" contentScriptType="application/ecmascript" contentStyleType="text/css" height="100px" preserveAspectRatio="none" style="width:331px;height:100px;background:#00000000;" version="1.1" viewBox="0 0 331 100" width="331px" zoomAndPan="magnify"><defs/><g><!--MD5=[602515fb88dfc3a8ae14067def011258]
class Rechnung--><rect codeLine="115" fill="#FEFECE" height="86.8652" id="Rechnung" style="stroke:#A80036;stroke-width:1.5;" width="137" x="7" y="7"/><ellipse cx="44.05" cy="23" fill="#ADD1B2" rx="11" ry="11" style="stroke:#A80036;stroke-width:1.0;"/><path d="M46.5231,29.1431 Q45.9421,29.4419 45.3029,29.5913 Q44.6638,29.7407 43.9582,29.7407 Q41.4514,29.7407 40.1315,28.0889 Q38.8117,26.437 38.8117,23.3159 Q38.8117,20.1865 40.1315,18.5347 Q41.4514,16.8828 43.9582,16.8828 Q44.6638,16.8828 45.3112,17.0322 Q45.9587,17.1816 46.5231,17.4805 L46.5231,20.2031 Q45.8923,19.6221 45.2988,19.3523 Q44.7053,19.0825 44.0744,19.0825 Q42.7297,19.0825 42.0449,20.1492 Q41.3601,21.2158 41.3601,23.3159 Q41.3601,25.4077 42.0449,26.4744 Q42.7297,27.541 44.0744,27.541 Q44.7053,27.541 45.2988,27.2712 Q45.8923,27.0015 46.5231,26.4204 Z " fill="#000000"/><text fill="#000000" font-family="sans-serif" font-size="12" lengthAdjust="spacingAndGlyphs" textLength="56" x="62.95" y="27.5352">Rechnung</text><line style="stroke:#A80036;stroke-width:1.5;" x1="8" x2="143" y1="39" y2="39"/><text fill="#000000" font-family="sans-serif" font-size="11" lengthAdjust="spacingAndGlyphs" textLength="101" x="13" y="53.6348">benutzer: Benutzer</text><text fill="#000000" font-family="sans-serif" font-size="11" lengthAdjust="spacingAndGlyphs" textLength="79" x="13" y="66.5898">betrag: Double</text><line style="stroke:#A80036;stroke-width:1.5;" x1="8" x2="143" y1="72.9102" y2="72.9102"/><text fill="#000000" font-family="sans-serif" font-size="11" lengthAdjust="spacingAndGlyphs" textLength="125" x="13" y="87.5449">getBenutzer(): Benutzer</text><!--MD5=[0c8199344457f6d35f1c8b4c6eadcf3f]
class Benutzer--><rect codeLine="121" fill="#FEFECE" height="52.9551" id="Benutzer" style="stroke:#A80036;stroke-width:1.5;" width="83" x="241" y="24"/><ellipse cx="256" cy="40" fill="#ADD1B2" rx="11" ry="11" style="stroke:#A80036;stroke-width:1.0;"/><path d="M258.4731,46.1431 Q257.8921,46.4419 257.2529,46.5913 Q256.6138,46.7407 255.9082,46.7407 Q253.4014,46.7407 252.0815,45.0889 Q250.7617,43.437 250.7617,40.3159 Q250.7617,37.1865 252.0815,35.5347 Q253.4014,33.8828 255.9082,33.8828 Q256.6138,33.8828 257.2612,34.0322 Q257.9087,34.1816 258.4731,34.4805 L258.4731,37.2031 Q257.8423,36.6221 257.2488,36.3523 Q256.6553,36.0825 256.0244,36.0825 Q254.6797,36.0825 253.9949,37.1492 Q253.3101,38.2158 253.3101,40.3159 Q253.3101,42.4077 253.9949,43.4744 Q254.6797,44.541 256.0244,44.541 Q256.6553,44.541 257.2488,44.2712 Q257.8423,44.0015 258.4731,43.4204 Z " fill="#000000"/><text fill="#000000" font-family="sans-serif" font-size="12" lengthAdjust="spacingAndGlyphs" textLength="51" x="270" y="44.5352">Benutzer</text><line style="stroke:#A80036;stroke-width:1.5;" x1="242" x2="323" y1="56" y2="56"/><text fill="#000000" font-family="sans-serif" font-size="11" lengthAdjust="spacingAndGlyphs" textLength="9" x="247" y="70.6348">...</text><!--MD5=[671579caff81d389dc1c08f9bf042c75]
link Rechnung to Benutzer--><path codeLine="125" d="M144.14,50.5 C171.27,50.5 202.03,50.5 227.64,50.5 " fill="none" id="Rechnung-to-Benutzer" style="stroke:#A80036;stroke-width:1.0;"/><polygon points="240.9,50.5,234.9,46.5,228.9,50.5,234.9,54.5,240.9,50.5" style="stroke:#A80036;stroke-width:1.0;fill:none;"/><text fill="#000000" font-family="sans-serif" font-size="13" lengthAdjust="spacingAndGlyphs" textLength="0" x="222.5" y="44.0684"/><text fill="#000000" font-family="sans-serif" font-size="13" lengthAdjust="spacingAndGlyphs" textLength="6" x="151.9756" y="47.2724">*</text><text fill="#000000" font-family="sans-serif" font-size="13" lengthAdjust="spacingAndGlyphs" textLength="8" x="225.0625" y="46.8098">1</text><!--MD5=[cbb8d61fdc9d5395e69df996a015f440]
PlantUML version 1.2020.26(Mon Dec 21 18:45:07 CET 2020)
(GPL source distribution)
Java Runtime: OpenJDK Runtime Environment
JVM: OpenJDK 64-Bit Server VM
Default Encoding: UTF-8
Language: en
Country: GB
--></g></svg>