<?xml version="1.0" encoding="UTF-8" standalone="no"?><svg xmlns="http://www.w3.org/2000/svg" xmlns:xlink="http://www.w3.org/1999/xlink" contentScriptType="application/ecmascript" contentStyleType="text/css" height="270px" preserveAspectRatio="none" style="width:498px;height:270px;background:#00000000;" version="1.1" viewBox="0 0 498 270" width="498px" zoomAndPan="magnify"><defs/><g><!--MD5=[d915aad2d8be754038301ab9b3e49da5]
class Medium--><rect codeLine="151" fill="#FEFECE" height="104.7754" id="Medium" style="stroke:#A80036;stroke-width:1.5;" width="148" x="176" y="7"/><ellipse cx="222.75" cy="23" fill="#ADD1B2" rx="11" ry="11" style="stroke:#A80036;stroke-width:1.0;"/><path d="M225.2231,29.1431 Q224.6421,29.4419 224.0029,29.5913 Q223.3638,29.7407 222.6582,29.7407 Q220.1514,29.7407 218.8315,28.0889 Q217.5117,26.437 217.5117,23.3159 Q217.5117,20.1865 218.8315,18.5347 Q220.1514,16.8828 222.6582,16.8828 Q223.3638,16.8828 224.0112,17.0322 Q224.6587,17.1816 225.2231,17.4805 L225.2231,20.2031 Q224.5923,19.6221 223.9988,19.3523 Q223.4053,19.0825 222.7744,19.0825 Q221.4297,19.0825 220.7449,20.1492 Q220.0601,21.2158 220.0601,23.3159 Q220.0601,25.4077 220.7449,26.4744 Q221.4297,27.541 222.7744,27.541 Q223.4053,27.541 223.9988,27.2712 Q224.5923,27.0015 225.2231,26.4204 Z " fill="#000000"/><text fill="#000000" font-family="sans-serif" font-size="12" lengthAdjust="spacingAndGlyphs" textLength="46" x="243.25" y="27.5352">Medium</text><line style="stroke:#A80036;stroke-width:1.5;" x1="177" x2="323" y1="39" y2="39"/><text fill="#000000" font-family="sans-serif" font-size="11" lengthAdjust="spacingAndGlyphs" textLength="82" x="182" y="53.6348">barcode: String</text><text fill="#000000" font-family="sans-serif" font-size="11" lengthAdjust="spacingAndGlyphs" textLength="58" x="182" y="66.5898">titel: String</text><text fill="#000000" font-family="sans-serif" font-size="11" lengthAdjust="spacingAndGlyphs" textLength="136" x="182" y="79.5449">kurzbeschreibung: String</text><text fill="#000000" font-family="sans-serif" font-size="11" lengthAdjust="spacingAndGlyphs" textLength="99" x="182" y="92.5">erworbenAm: Date</text><text fill="#000000" font-family="sans-serif" font-size="11" lengthAdjust="spacingAndGlyphs" textLength="125" x="182" y="105.4551">zusatzMedium: Medium</text><!--MD5=[e5a534f499731948af20a60ef15bf856]
class Buch--><rect codeLine="159" fill="#FEFECE" height="91.8203" id="Buch" style="stroke:#A80036;stroke-width:1.5;" width="96" x="7" y="172"/><ellipse cx="38.65" cy="188" fill="#ADD1B2" rx="11" ry="11" style="stroke:#A80036;stroke-width:1.0;"/><path d="M41.1231,194.1431 Q40.5421,194.4419 39.9029,194.5913 Q39.2638,194.7407 38.5582,194.7407 Q36.0514,194.7407 34.7315,193.0889 Q33.4117,191.437 33.4117,188.3159 Q33.4117,185.1865 34.7315,183.5347 Q36.0514,181.8828 38.5582,181.8828 Q39.2638,181.8828 39.9112,182.0322 Q40.5587,182.1816 41.1231,182.4805 L41.1231,185.2031 Q40.4923,184.6221 39.8988,184.3523 Q39.3053,184.0825 38.6744,184.0825 Q37.3297,184.0825 36.6449,185.1492 Q35.9601,186.2158 35.9601,188.3159 Q35.9601,190.4077 36.6449,191.4744 Q37.3297,192.541 38.6744,192.541 Q39.3053,192.541 39.8988,192.2712 Q40.4923,192.0015 41.1231,191.4204 Z " fill="#000000"/><text fill="#000000" font-family="sans-serif" font-size="12" lengthAdjust="spacingAndGlyphs" textLength="27" x="56.35" y="192.5352">Buch</text><line style="stroke:#A80036;stroke-width:1.5;" x1="8" x2="102" y1="204" y2="204"/><text fill="#000000" font-family="sans-serif" font-size="11" lengthAdjust="spacingAndGlyphs" textLength="72" x="13" y="218.6348">autor: Person</text><text fill="#000000" font-family="sans-serif" font-size="11" lengthAdjust="spacingAndGlyphs" textLength="61" x="13" y="231.5898">ISBN: String</text><text fill="#000000" font-family="sans-serif" font-size="11" lengthAdjust="spacingAndGlyphs" textLength="84" x="13" y="244.5449">standort: String</text><text fill="#000000" font-family="sans-serif" font-size="11" lengthAdjust="spacingAndGlyphs" textLength="81" x="13" y="257.5">sprache: String</text><!--MD5=[e980801668e1fdd99325d445ee2c1e8d]
class Hoerbuch--><rect codeLine="165" fill="#FEFECE" height="78.8652" id="Hoerbuch" style="stroke:#A80036;stroke-width:1.5;" width="93" x="138.5" y="178.5"/><ellipse cx="155.75" cy="194.5" fill="#ADD1B2" rx="11" ry="11" style="stroke:#A80036;stroke-width:1.0;"/><path d="M158.2231,200.6431 Q157.6421,200.9419 157.0029,201.0913 Q156.3638,201.2407 155.6582,201.2407 Q153.1514,201.2407 151.8315,199.5889 Q150.5117,197.937 150.5117,194.8159 Q150.5117,191.6865 151.8315,190.0347 Q153.1514,188.3828 155.6582,188.3828 Q156.3638,188.3828 157.0112,188.5322 Q157.6587,188.6816 158.2231,188.9805 L158.2231,191.7031 Q157.5923,191.1221 156.9988,190.8523 Q156.4053,190.5825 155.7744,190.5825 Q154.4297,190.5825 153.7449,191.6492 Q153.0601,192.7158 153.0601,194.8159 Q153.0601,196.9077 153.7449,197.9744 Q154.4297,199.041 155.7744,199.041 Q156.4053,199.041 156.9988,198.7712 Q157.5923,198.5015 158.2231,197.9204 Z " fill="#000000"/><text fill="#000000" font-family="sans-serif" font-size="12" lengthAdjust="spacingAndGlyphs" textLength="56" x="170.25" y="199.0352">Hoerbuch</text><line style="stroke:#A80036;stroke-width:1.5;" x1="139.5" x2="230.5" y1="210.5" y2="210.5"/><text fill="#000000" font-family="sans-serif" font-size="11" lengthAdjust="spacingAndGlyphs" textLength="72" x="144.5" y="225.1348">autor: Person</text><text fill="#000000" font-family="sans-serif" font-size="11" lengthAdjust="spacingAndGlyphs" textLength="61" x="144.5" y="238.0898">ISBN: String</text><text fill="#000000" font-family="sans-serif" font-size="11" lengthAdjust="spacingAndGlyphs" textLength="81" x="144.5" y="251.0449">sprache: String</text><!--MD5=[6d439a513acee906c4f9a2dd4f629010]
class DVD--><rect codeLine="171" fill="#FEFECE" height="78.8652" id="DVD" style="stroke:#A80036;stroke-width:1.5;" width="96" x="267" y="178.5"/><ellipse cx="299.1" cy="194.5" fill="#ADD1B2" rx="11" ry="11" style="stroke:#A80036;stroke-width:1.0;"/><path d="M301.5731,200.6431 Q300.9921,200.9419 300.3529,201.0913 Q299.7138,201.2407 299.0082,201.2407 Q296.5014,201.2407 295.1815,199.5889 Q293.8617,197.937 293.8617,194.8159 Q293.8617,191.6865 295.1815,190.0347 Q296.5014,188.3828 299.0082,188.3828 Q299.7138,188.3828 300.3612,188.5322 Q301.0087,188.6816 301.5731,188.9805 L301.5731,191.7031 Q300.9423,191.1221 300.3488,190.8523 Q299.7553,190.5825 299.1244,190.5825 Q297.7797,190.5825 297.0949,191.6492 Q296.4101,192.7158 296.4101,194.8159 Q296.4101,196.9077 297.0949,197.9744 Q297.7797,199.041 299.1244,199.041 Q299.7553,199.041 300.3488,198.7712 Q300.9423,198.5015 301.5731,197.9204 Z " fill="#000000"/><text fill="#000000" font-family="sans-serif" font-size="12" lengthAdjust="spacingAndGlyphs" textLength="26" x="316.9" y="199.0352">DVD</text><line style="stroke:#A80036;stroke-width:1.5;" x1="268" x2="362" y1="210.5" y2="210.5"/><text fill="#000000" font-family="sans-serif" font-size="11" lengthAdjust="spacingAndGlyphs" textLength="57" x="273" y="225.1348">ean: String</text><text fill="#000000" font-family="sans-serif" font-size="11" lengthAdjust="spacingAndGlyphs" textLength="47" x="273" y="238.0898">Interpret</text><text fill="#000000" font-family="sans-serif" font-size="11" lengthAdjust="spacingAndGlyphs" textLength="84" x="273" y="251.0449">standort: String</text><!--MD5=[67533117a625bf32902f6e6a5ceac7b1]
class Ebook--><rect codeLine="177" fill="#FEFECE" height="78.8652" id="Ebook" style="stroke:#A80036;stroke-width:1.5;" width="93" x="398.5" y="178.5"/><ellipse cx="424.75" cy="194.5" fill="#ADD1B2" rx="11" ry="11" style="stroke:#A80036;stroke-width:1.0;"/><path d="M427.2231,200.6431 Q426.6421,200.9419 426.0029,201.0913 Q425.3638,201.2407 424.6582,201.2407 Q422.1514,201.2407 420.8315,199.5889 Q419.5117,197.937 419.5117,194.8159 Q419.5117,191.6865 420.8315,190.0347 Q422.1514,188.3828 424.6582,188.3828 Q425.3638,188.3828 426.0112,188.5322 Q426.6587,188.6816 427.2231,188.9805 L427.2231,191.7031 Q426.5923,191.1221 425.9988,190.8523 Q425.4053,190.5825 424.7744,190.5825 Q423.4297,190.5825 422.7449,191.6492 Q422.0601,192.7158 422.0601,194.8159 Q422.0601,196.9077 422.7449,197.9744 Q423.4297,199.041 424.7744,199.041 Q425.4053,199.041 425.9988,198.7712 Q426.5923,198.5015 427.2231,197.9204 Z " fill="#000000"/><text fill="#000000" font-family="sans-serif" font-size="12" lengthAdjust="spacingAndGlyphs" textLength="36" x="441.25" y="199.0352">Ebook</text><line style="stroke:#A80036;stroke-width:1.5;" x1="399.5" x2="490.5" y1="210.5" y2="210.5"/><text fill="#000000" font-family="sans-serif" font-size="11" lengthAdjust="spacingAndGlyphs" textLength="72" x="404.5" y="225.1348">autor: Person</text><text fill="#000000" font-family="sans-serif" font-size="11" lengthAdjust="spacingAndGlyphs" textLength="61" x="404.5" y="238.0898">ISBN: String</text><text fill="#000000" font-family="sans-serif" font-size="11" lengthAdjust="spacingAndGlyphs" textLength="81" x="404.5" y="251.0449">sprache: String</text><!--MD5=[9b3021549fe4a8ad0ea3a5eebe6819be]
reverse link Medium to Buch--><path codeLine="184" d="M169.84,124.83 C147.24,142.97 123.36,162.14 103.26,178.27 " fill="none" id="Medium-backto-Buch" style="stroke:#A80036;stroke-width:1.0;"/><polygon fill="none" points="165.63,119.24,185.61,112.18,174.39,130.16,165.63,119.24" style="stroke:#A80036;stroke-width:1.0;"/><!--MD5=[6d3765d18f6eaba7ebf58dfd5b720db0]
reverse link Medium to DVD--><path codeLine="185" d="M279.24,130.91 C286.01,147.19 292.96,163.93 298.91,178.27 " fill="none" id="Medium-backto-DVD" style="stroke:#A80036;stroke-width:1.0;"/><polygon fill="none" points="272.67,133.33,271.46,112.18,285.6,127.96,272.67,133.33" style="stroke:#A80036;stroke-width:1.0;"/><!--MD5=[9c1ab8decadd1ecf9aae44f12a8a142e]
reverse link Medium to Hoerbuch--><path codeLine="186" d="M220.76,130.91 C213.99,147.19 207.04,163.93 201.09,178.27 " fill="none" id="Medium-backto-Hoerbuch" style="stroke:#A80036;stroke-width:1.0;"/><polygon fill="none" points="214.4,127.96,228.54,112.18,227.33,133.33,214.4,127.96" style="stroke:#A80036;stroke-width:1.0;"/><!--MD5=[501c758226435666e783efc942499645]
reverse link Medium to Ebook--><path codeLine="187" d="M330.15,124.83 C353.33,143.43 377.86,163.12 398.27,179.5 " fill="none" id="Medium-backto-Ebook" style="stroke:#A80036;stroke-width:1.0;"/><polygon fill="none" points="325.61,130.16,314.39,112.18,334.37,119.24,325.61,130.16" style="stroke:#A80036;stroke-width:1.0;"/><!--MD5=[cbb8d61fdc9d5395e69df996a015f440]
PlantUML version 1.2020.26(Mon Dec 21 18:45:07 CET 2020)
(GPL source distribution)
Java Runtime: OpenJDK Runtime Environment
JVM: OpenJDK 64-Bit Server VM
Default Encoding: UTF-8
Language: en
Country: GB
--></g></svg>