<?xml version="1.0" encoding="UTF-8" standalone="no"?><svg xmlns="http://www.w3.org/2000/svg" xmlns:xlink="http://www.w3.org/1999/xlink" contentScriptType="application/ecmascript" contentStyleType="text/css" height="66px" preserveAspectRatio="none" style="width:409px;height:66px;background:#00000000;" version="1.1" viewBox="0 0 409 66" width="409px" zoomAndPan="magnify"><defs/><g><!--MD5=[d915aad2d8be754038301ab9b3e49da5]
class Medium--><rect codeLine="134" fill="#FEFECE" height="52.9551" id="Medium" style="stroke:#A80036;stroke-width:1.5;" width="163" x="239.5" y="7"/><ellipse cx="293.75" cy="23" fill="#ADD1B2" rx="11" ry="11" style="stroke:#A80036;stroke-width:1.0;"/><path d="M296.2231,29.1431 Q295.6421,29.4419 295.0029,29.5913 Q294.3638,29.7407 293.6582,29.7407 Q291.1514,29.7407 289.8315,28.0889 Q288.5117,26.437 288.5117,23.3159 Q288.5117,20.1865 289.8315,18.5347 Q291.1514,16.8828 293.6582,16.8828 Q294.3638,16.8828 295.0112,17.0322 Q295.6587,17.1816 296.2231,17.4805 L296.2231,20.2031 Q295.5923,19.6221 294.9988,19.3523 Q294.4053,19.0825 293.7744,19.0825 Q292.4297,19.0825 291.7449,20.1492 Q291.0601,21.2158 291.0601,23.3159 Q291.0601,25.4077 291.7449,26.4744 Q292.4297,27.541 293.7744,27.541 Q294.4053,27.541 294.9988,27.2712 Q295.5923,27.0015 296.2231,26.4204 Z " fill="#000000"/><text fill="#000000" font-family="sans-serif" font-size="12" lengthAdjust="spacingAndGlyphs" textLength="46" x="314.25" y="27.5352">Medium</text><line style="stroke:#A80036;stroke-width:1.5;" x1="240.5" x2="401.5" y1="39" y2="39"/><text fill="#000000" font-family="sans-serif" font-size="11" lengthAdjust="spacingAndGlyphs" textLength="151" x="245.5" y="53.6348">kategorien: List&lt;Kategorie&gt;</text><!--MD5=[5944974df8beada49cc994a16dc2a7de]
class Kategorie--><rect codeLine="138" fill="#FEFECE" height="52.9551" id="Kategorie" style="stroke:#A80036;stroke-width:1.5;" width="136" x="7" y="7"/><ellipse cx="44.05" cy="23" fill="#ADD1B2" rx="11" ry="11" style="stroke:#A80036;stroke-width:1.0;"/><path d="M46.5231,29.1431 Q45.9421,29.4419 45.3029,29.5913 Q44.6638,29.7407 43.9582,29.7407 Q41.4514,29.7407 40.1315,28.0889 Q38.8117,26.437 38.8117,23.3159 Q38.8117,20.1865 40.1315,18.5347 Q41.4514,16.8828 43.9582,16.8828 Q44.6638,16.8828 45.3112,17.0322 Q45.9587,17.1816 46.5231,17.4805 L46.5231,20.2031 Q45.8923,19.6221 45.2988,19.3523 Q44.7053,19.0825 44.0744,19.0825 Q42.7297,19.0825 42.0449,20.1492 Q41.3601,21.2158 41.3601,23.3159 Q41.3601,25.4077 42.0449,26.4744 Q42.7297,27.541 44.0744,27.541 Q44.7053,27.541 45.2988,27.2712 Q45.8923,27.0015 46.5231,26.4204 Z " fill="#000000"/><text fill="#000000" font-family="sans-serif" font-size="12" lengthAdjust="spacingAndGlyphs" textLength="55" x="62.95" y="27.5352">Kategorie</text><line style="stroke:#A80036;stroke-width:1.5;" x1="8" x2="142" y1="39" y2="39"/><text fill="#000000" font-family="sans-serif" font-size="11" lengthAdjust="spacingAndGlyphs" textLength="124" x="13" y="53.6348">medien: List&lt;Medium&gt;</text><!--MD5=[a800513b581d537e7fed9c2e977aef5c]
link Kategorie to Medium--><path codeLine="142" d="M143.2,33.5 C172.92,33.5 208,33.5 239.12,33.5 " fill="none" id="Kategorie-Medium" style="stroke:#A80036;stroke-width:1.0;"/><text fill="#000000" font-family="sans-serif" font-size="13" lengthAdjust="spacingAndGlyphs" textLength="0" x="221.25" y="27.0684"/><text fill="#000000" font-family="sans-serif" font-size="13" lengthAdjust="spacingAndGlyphs" textLength="6" x="150.9875" y="30.2675">*</text><text fill="#000000" font-family="sans-serif" font-size="13" lengthAdjust="spacingAndGlyphs" textLength="6" x="225.5604" y="30.4162">*</text><!--MD5=[cbb8d61fdc9d5395e69df996a015f440]
PlantUML version 1.2020.26(Mon Dec 21 18:45:07 CET 2020)
(GPL source distribution)
Java Runtime: OpenJDK Runtime Environment
JVM: OpenJDK 64-Bit Server VM
Default Encoding: UTF-8
Language: en
Country: GB
--></g></svg>