<?xml version="1.0" encoding="UTF-8" standalone="no"?><svg xmlns="http://www.w3.org/2000/svg" xmlns:xlink="http://www.w3.org/1999/xlink" contentScriptType="application/ecmascript" contentStyleType="text/css" height="225px" preserveAspectRatio="none" style="width:582px;height:225px;" version="1.1" viewBox="0 0 582 225" width="582px" zoomAndPan="magnify"><defs><filter height="300%" id="f16" width="300%" x="-1" y="-1"><feGaussianBlur result="blurOut" stdDeviation="2.0"/><feColorMatrix in="blurOut" result="blurOut2" type="matrix" values="0 0 0 0 0 0 0 0 0 0 0 0 0 0 0 0 0 0 .4 0"/><feOffset dx="4.0" dy="4.0" in="blurOut2" result="blurOut3"/><feBlend in="SourceGraphic" in2="blurOut3" mode="normal"/></filter></defs><g><!--MD5=[d915aad2d8be754038301ab9b3e49da5]
class Medium--><rect codeLine="4" fill="#FEFECE" filter="url(#f16)" height="65.9102" id="Medium" style="stroke:#A80036;stroke-width:1.5;" width="94" x="58" y="13.5"/><ellipse cx="80.2" cy="29.5" fill="#ADD1B2" rx="11" ry="11" style="stroke:#A80036;stroke-width:1.0;"/><path d="M82.6731,35.6431 Q82.0921,35.9419 81.4529,36.0913 Q80.8138,36.2407 80.1082,36.2407 Q77.6014,36.2407 76.2815,34.5889 Q74.9617,32.937 74.9617,29.8159 Q74.9617,26.6865 76.2815,25.0347 Q77.6014,23.3828 80.1082,23.3828 Q80.8138,23.3828 81.4612,23.5322 Q82.1087,23.6816 82.6731,23.9805 L82.6731,26.7031 Q82.0423,26.1221 81.4488,25.8523 Q80.8553,25.5825 80.2244,25.5825 Q78.8797,25.5825 78.1949,26.6492 Q77.5101,27.7158 77.5101,29.8159 Q77.5101,31.9077 78.1949,32.9744 Q78.8797,34.041 80.2244,34.041 Q80.8553,34.041 81.4488,33.7712 Q82.0423,33.5015 82.6731,32.9204 Z " fill="#000000"/><text fill="#000000" font-family="sans-serif" font-size="12" lengthAdjust="spacingAndGlyphs" textLength="46" x="95.8" y="34.0352">Medium</text><line style="stroke:#A80036;stroke-width:1.5;" x1="59" x2="151" y1="45.5" y2="45.5"/><text fill="#000000" font-family="sans-serif" font-size="11" lengthAdjust="spacingAndGlyphs" textLength="82" x="64" y="60.1348">barcode: String</text><text fill="#000000" font-family="sans-serif" font-size="11" lengthAdjust="spacingAndGlyphs" textLength="58" x="64" y="73.0898">titel: String</text><!--MD5=[4840bb0707ce43c4977391c7b4b38119]
class MediumExemplar--><rect codeLine="9" fill="#FEFECE" filter="url(#f16)" height="52.9551" id="MediumExemplar" style="stroke:#A80036;stroke-width:1.5;" width="133" x="187.5" y="20"/><ellipse cx="202.5" cy="36" fill="#ADD1B2" rx="11" ry="11" style="stroke:#A80036;stroke-width:1.0;"/><path d="M204.9731,42.1431 Q204.3921,42.4419 203.7529,42.5913 Q203.1138,42.7407 202.4082,42.7407 Q199.9014,42.7407 198.5815,41.0889 Q197.2617,39.437 197.2617,36.3159 Q197.2617,33.1865 198.5815,31.5347 Q199.9014,29.8828 202.4082,29.8828 Q203.1138,29.8828 203.7612,30.0322 Q204.4087,30.1816 204.9731,30.4805 L204.9731,33.2031 Q204.3423,32.6221 203.7488,32.3523 Q203.1553,32.0825 202.5244,32.0825 Q201.1797,32.0825 200.4949,33.1492 Q199.8101,34.2158 199.8101,36.3159 Q199.8101,38.4077 200.4949,39.4744 Q201.1797,40.541 202.5244,40.541 Q203.1553,40.541 203.7488,40.2712 Q204.3423,40.0015 204.9731,39.4204 Z " fill="#000000"/><text fill="#000000" font-family="sans-serif" font-size="12" lengthAdjust="spacingAndGlyphs" textLength="101" x="216.5" y="40.5352">MediumExemplar</text><line style="stroke:#A80036;stroke-width:1.5;" x1="188.5" x2="319.5" y1="52" y2="52"/><text fill="#000000" font-family="sans-serif" font-size="11" lengthAdjust="spacingAndGlyphs" textLength="83" x="193.5" y="66.6348">exemplarNr: Int</text><!--MD5=[e5a534f499731948af20a60ef15bf856]
class Buch--><rect codeLine="13" fill="#FEFECE" filter="url(#f16)" height="65.9102" id="Buch" style="stroke:#A80036;stroke-width:1.5;" width="84" x="7" y="146"/><ellipse cx="33.25" cy="162" fill="#ADD1B2" rx="11" ry="11" style="stroke:#A80036;stroke-width:1.0;"/><path d="M35.7231,168.1431 Q35.1421,168.4419 34.5029,168.5913 Q33.8638,168.7407 33.1582,168.7407 Q30.6514,168.7407 29.3315,167.0889 Q28.0117,165.437 28.0117,162.3159 Q28.0117,159.1865 29.3315,157.5347 Q30.6514,155.8828 33.1582,155.8828 Q33.8638,155.8828 34.5112,156.0322 Q35.1587,156.1816 35.7231,156.4805 L35.7231,159.2031 Q35.0923,158.6221 34.4988,158.3523 Q33.9053,158.0825 33.2744,158.0825 Q31.9297,158.0825 31.2449,159.1492 Q30.5601,160.2158 30.5601,162.3159 Q30.5601,164.4077 31.2449,165.4744 Q31.9297,166.541 33.2744,166.541 Q33.9053,166.541 34.4988,166.2712 Q35.0923,166.0015 35.7231,165.4204 Z " fill="#000000"/><text fill="#000000" font-family="sans-serif" font-size="12" lengthAdjust="spacingAndGlyphs" textLength="27" x="49.75" y="166.5352">Buch</text><line style="stroke:#A80036;stroke-width:1.5;" x1="8" x2="90" y1="178" y2="178"/><text fill="#000000" font-family="sans-serif" font-size="11" lengthAdjust="spacingAndGlyphs" textLength="72" x="13" y="192.6348">autor: Person</text><text fill="#000000" font-family="sans-serif" font-size="11" lengthAdjust="spacingAndGlyphs" textLength="61" x="13" y="205.5898">ISBN: String</text><!--MD5=[6d439a513acee906c4f9a2dd4f629010]
class DVD--><rect codeLine="18" fill="#FEFECE" filter="url(#f16)" height="65.9102" id="DVD" style="stroke:#A80036;stroke-width:1.5;" width="69" x="126.5" y="146"/><ellipse cx="146.45" cy="162" fill="#ADD1B2" rx="11" ry="11" style="stroke:#A80036;stroke-width:1.0;"/><path d="M148.9231,168.1431 Q148.3421,168.4419 147.7029,168.5913 Q147.0638,168.7407 146.3582,168.7407 Q143.8514,168.7407 142.5315,167.0889 Q141.2117,165.437 141.2117,162.3159 Q141.2117,159.1865 142.5315,157.5347 Q143.8514,155.8828 146.3582,155.8828 Q147.0638,155.8828 147.7112,156.0322 Q148.3587,156.1816 148.9231,156.4805 L148.9231,159.2031 Q148.2923,158.6221 147.6988,158.3523 Q147.1053,158.0825 146.4744,158.0825 Q145.1297,158.0825 144.4449,159.1492 Q143.7601,160.2158 143.7601,162.3159 Q143.7601,164.4077 144.4449,165.4744 Q145.1297,166.541 146.4744,166.541 Q147.1053,166.541 147.6988,166.2712 Q148.2923,166.0015 148.9231,165.4204 Z " fill="#000000"/><text fill="#000000" font-family="sans-serif" font-size="12" lengthAdjust="spacingAndGlyphs" textLength="26" x="161.55" y="166.5352">DVD</text><line style="stroke:#A80036;stroke-width:1.5;" x1="127.5" x2="194.5" y1="178" y2="178"/><text fill="#000000" font-family="sans-serif" font-size="11" lengthAdjust="spacingAndGlyphs" textLength="57" x="132.5" y="192.6348">ean: String</text><text fill="#000000" font-family="sans-serif" font-size="11" lengthAdjust="spacingAndGlyphs" textLength="47" x="132.5" y="205.5898">Interpret</text><!--MD5=[0c8199344457f6d35f1c8b4c6eadcf3f]
class Benutzer--><rect codeLine="23" fill="#FEFECE" filter="url(#f16)" height="78.8652" id="Benutzer" style="stroke:#A80036;stroke-width:1.5;" width="97" x="471.5" y="7"/><ellipse cx="492.8" cy="23" fill="#ADD1B2" rx="11" ry="11" style="stroke:#A80036;stroke-width:1.0;"/><path d="M495.2731,29.1431 Q494.6921,29.4419 494.0529,29.5913 Q493.4138,29.7407 492.7082,29.7407 Q490.2014,29.7407 488.8815,28.0889 Q487.5617,26.437 487.5617,23.3159 Q487.5617,20.1865 488.8815,18.5347 Q490.2014,16.8828 492.7082,16.8828 Q493.4138,16.8828 494.0612,17.0322 Q494.7087,17.1816 495.2731,17.4805 L495.2731,20.2031 Q494.6423,19.6221 494.0488,19.3523 Q493.4553,19.0825 492.8244,19.0825 Q491.4797,19.0825 490.7949,20.1492 Q490.1101,21.2158 490.1101,23.3159 Q490.1101,25.4077 490.7949,26.4744 Q491.4797,27.541 492.8244,27.541 Q493.4553,27.541 494.0488,27.2712 Q494.6423,27.0015 495.2731,26.4204 Z " fill="#000000"/><text fill="#000000" font-family="sans-serif" font-size="12" lengthAdjust="spacingAndGlyphs" textLength="51" x="508.2" y="27.5352">Benutzer</text><line style="stroke:#A80036;stroke-width:1.5;" x1="472.5" x2="567.5" y1="39" y2="39"/><text fill="#000000" font-family="sans-serif" font-size="11" lengthAdjust="spacingAndGlyphs" textLength="64" x="477.5" y="53.6348">name:String</text><text fill="#000000" font-family="sans-serif" font-size="11" lengthAdjust="spacingAndGlyphs" textLength="85" x="477.5" y="66.5898">vorname: String</text><text fill="#000000" font-family="sans-serif" font-size="11" lengthAdjust="spacingAndGlyphs" textLength="65" x="477.5" y="79.5449">login: String</text><!--MD5=[775d48757b4d0b196c8ef5a39d25b6a3]
class Ausleihe--><rect codeLine="29" fill="#FEFECE" filter="url(#f16)" height="65.9102" id="Ausleihe" style="stroke:#A80036;stroke-width:1.5;" width="80" x="356" y="13.5"/><ellipse cx="371" cy="29.5" fill="#ADD1B2" rx="11" ry="11" style="stroke:#A80036;stroke-width:1.0;"/><path d="M373.4731,35.6431 Q372.8921,35.9419 372.2529,36.0913 Q371.6138,36.2407 370.9082,36.2407 Q368.4014,36.2407 367.0815,34.5889 Q365.7617,32.937 365.7617,29.8159 Q365.7617,26.6865 367.0815,25.0347 Q368.4014,23.3828 370.9082,23.3828 Q371.6138,23.3828 372.2612,23.5322 Q372.9087,23.6816 373.4731,23.9805 L373.4731,26.7031 Q372.8423,26.1221 372.2488,25.8523 Q371.6553,25.5825 371.0244,25.5825 Q369.6797,25.5825 368.9949,26.6492 Q368.3101,27.7158 368.3101,29.8159 Q368.3101,31.9077 368.9949,32.9744 Q369.6797,34.041 371.0244,34.041 Q371.6553,34.041 372.2488,33.7712 Q372.8423,33.5015 373.4731,32.9204 Z " fill="#000000"/><text fill="#000000" font-family="sans-serif" font-size="12" lengthAdjust="spacingAndGlyphs" textLength="48" x="385" y="34.0352">Ausleihe</text><line style="stroke:#A80036;stroke-width:1.5;" x1="357" x2="435" y1="45.5" y2="45.5"/><text fill="#000000" font-family="sans-serif" font-size="11" lengthAdjust="spacingAndGlyphs" textLength="50" x="362" y="60.1348">von: Date</text><text fill="#000000" font-family="sans-serif" font-size="11" lengthAdjust="spacingAndGlyphs" textLength="46" x="362" y="73.0898">bis: Date</text><!--MD5=[9b3021549fe4a8ad0ea3a5eebe6819be]
reverse link Medium to Buch--><path codeLine="34" d="M83.19,98.31 C76.36,114.24 69.01,131.38 62.88,145.66 " fill="none" id="Medium-backto-Buch" style="stroke:#A80036;stroke-width:1.0;"/><polygon fill="none" points="76.84,95.38,91.16,79.76,89.7,100.9,76.84,95.38" style="stroke:#A80036;stroke-width:1.0;"/><!--MD5=[6d3765d18f6eaba7ebf58dfd5b720db0]
reverse link Medium to DVD--><path codeLine="35" d="M126.81,98.31 C133.64,114.24 140.99,131.38 147.12,145.66 " fill="none" id="Medium-backto-DVD" style="stroke:#A80036;stroke-width:1.0;"/><polygon fill="none" points="120.3,100.9,118.84,79.76,133.16,95.38,120.3,100.9" style="stroke:#A80036;stroke-width:1.0;"/><!--MD5=[386a5311642fa4e549248836389624ba]
link Medium to MediumExemplar--><path codeLine="37" d="M152.14,46.5 C163.82,46.5 175.49,46.5 187.16,46.5 " fill="none" id="Medium-MediumExemplar" style="stroke:#A80036;stroke-width:1.0;"/><text fill="#000000" font-family="sans-serif" font-size="13" lengthAdjust="spacingAndGlyphs" textLength="8" x="159.9708" y="42.9506">1</text><text fill="#000000" font-family="sans-serif" font-size="13" lengthAdjust="spacingAndGlyphs" textLength="6" x="173.5213" y="43.2675">*</text><!--MD5=[3f773951c4afd3e25888b577e85a36d6]
link Ausleihe to Benutzer--><path codeLine="39" d="M436.2,46.5 C447.88,46.5 459.55,46.5 471.23,46.5 " fill="none" id="Ausleihe-Benutzer" style="stroke:#A80036;stroke-width:1.0;"/><text fill="#000000" font-family="sans-serif" font-size="13" lengthAdjust="spacingAndGlyphs" textLength="6" x="443.895" y="42.7681">*</text><text fill="#000000" font-family="sans-serif" font-size="13" lengthAdjust="spacingAndGlyphs" textLength="8" x="455.4794" y="42.9995">1</text><!--MD5=[af657832572d305e1662d0a055cea1e5]
link MediumExemplar to Ausleihe--><path codeLine="40" d="M320.56,46.5 C332.35,46.5 344.14,46.5 355.92,46.5 " fill="none" id="MediumExemplar-Ausleihe" style="stroke:#A80036;stroke-width:1.0;"/><text fill="#000000" font-family="sans-serif" font-size="13" lengthAdjust="spacingAndGlyphs" textLength="6" x="328.6029" y="43.2217">*</text><text fill="#000000" font-family="sans-serif" font-size="13" lengthAdjust="spacingAndGlyphs" textLength="6" x="341.9771" y="42.7225">*</text><!--MD5=[cbb8d61fdc9d5395e69df996a015f440]
PlantUML version 1.2020.26(Mon Dec 21 18:45:07 CET 2020)
(GPL source distribution)
Java Runtime: OpenJDK Runtime Environment
JVM: OpenJDK 64-Bit Server VM
Default Encoding: UTF-8
Language: en
Country: GB
--></g></svg>