<?xml version="1.0" encoding="UTF-8" standalone="no"?><svg xmlns="http://www.w3.org/2000/svg" xmlns:xlink="http://www.w3.org/1999/xlink" contentScriptType="application/ecmascript" contentStyleType="text/css" height="100px" preserveAspectRatio="none" style="width:381px;height:100px;background:#00000000;" version="1.1" viewBox="0 0 381 100" width="381px" zoomAndPan="magnify"><defs/><g><!--MD5=[0c8199344457f6d35f1c8b4c6eadcf3f]
class Benutzer--><rect codeLine="75" fill="#FEFECE" height="86.8652" id="Benutzer" style="stroke:#A80036;stroke-width:1.5;" width="117" x="257" y="7"/><ellipse cx="287.3" cy="23" fill="#ADD1B2" rx="11" ry="11" style="stroke:#A80036;stroke-width:1.0;"/><path d="M289.7731,29.1431 Q289.1921,29.4419 288.5529,29.5913 Q287.9138,29.7407 287.2082,29.7407 Q284.7014,29.7407 283.3815,28.0889 Q282.0617,26.437 282.0617,23.3159 Q282.0617,20.1865 283.3815,18.5347 Q284.7014,16.8828 287.2082,16.8828 Q287.9138,16.8828 288.5612,17.0322 Q289.2087,17.1816 289.7731,17.4805 L289.7731,20.2031 Q289.1423,19.6221 288.5488,19.3523 Q287.9553,19.0825 287.3244,19.0825 Q285.9797,19.0825 285.2949,20.1492 Q284.6101,21.2158 284.6101,23.3159 Q284.6101,25.4077 285.2949,26.4744 Q285.9797,27.541 287.3244,27.541 Q287.9553,27.541 288.5488,27.2712 Q289.1423,27.0015 289.7731,26.4204 Z " fill="#000000"/><text fill="#000000" font-family="sans-serif" font-size="12" lengthAdjust="spacingAndGlyphs" textLength="51" x="304.7" y="27.5352">Benutzer</text><line style="stroke:#A80036;stroke-width:1.5;" x1="258" x2="373" y1="39" y2="39"/><text fill="#000000" font-family="sans-serif" font-size="11" lengthAdjust="spacingAndGlyphs" textLength="81" x="263" y="53.6348">person: Person</text><line style="stroke:#A80036;stroke-width:1.5;" x1="258" x2="373" y1="59.9551" y2="59.9551"/><text fill="#000000" font-family="sans-serif" font-size="11" lengthAdjust="spacingAndGlyphs" textLength="105" x="263" y="74.5898">getPerson(): Person</text><text fill="#000000" font-family="sans-serif" font-size="11" lengthAdjust="spacingAndGlyphs" textLength="98" x="263" y="87.5449">setPerson(Person)</text><!--MD5=[09ce52be0ee7de43c61b6e2d59bf108b]
class Person--><rect codeLine="81" fill="#FEFECE" height="86.8652" id="Person" style="stroke:#A80036;stroke-width:1.5;" width="153" x="7" y="7"/><ellipse cx="59.75" cy="23" fill="#ADD1B2" rx="11" ry="11" style="stroke:#A80036;stroke-width:1.0;"/><path d="M62.2231,29.1431 Q61.6421,29.4419 61.0029,29.5913 Q60.3638,29.7407 59.6582,29.7407 Q57.1514,29.7407 55.8315,28.0889 Q54.5117,26.437 54.5117,23.3159 Q54.5117,20.1865 55.8315,18.5347 Q57.1514,16.8828 59.6582,16.8828 Q60.3638,16.8828 61.0112,17.0322 Q61.6587,17.1816 62.2231,17.4805 L62.2231,20.2031 Q61.5923,19.6221 60.9988,19.3523 Q60.4053,19.0825 59.7744,19.0825 Q58.4297,19.0825 57.7449,20.1492 Q57.0601,21.2158 57.0601,23.3159 Q57.0601,25.4077 57.7449,26.4744 Q58.4297,27.541 59.7744,27.541 Q60.4053,27.541 60.9988,27.2712 Q61.5923,27.0015 62.2231,26.4204 Z " fill="#000000"/><text fill="#000000" font-family="sans-serif" font-size="12" lengthAdjust="spacingAndGlyphs" textLength="39" x="80.25" y="27.5352">Person</text><line style="stroke:#A80036;stroke-width:1.5;" x1="8" x2="159" y1="39" y2="39"/><text fill="#000000" font-family="sans-serif" font-size="11" lengthAdjust="spacingAndGlyphs" textLength="101" x="13" y="53.6348">benutzer: Benutzer</text><line style="stroke:#A80036;stroke-width:1.5;" x1="8" x2="159" y1="59.9551" y2="59.9551"/><text fill="#000000" font-family="sans-serif" font-size="11" lengthAdjust="spacingAndGlyphs" textLength="125" x="13" y="74.5898">getBenutzer(): Benutzer</text><text fill="#000000" font-family="sans-serif" font-size="11" lengthAdjust="spacingAndGlyphs" textLength="141" x="13" y="87.5449">createBenutzer(): Benutzer</text><!--MD5=[0b7a9dbfe7ddf33c53e8d5a0d9e2d3b4]
link Person to Benutzer--><path codeLine="87" d="M160.11,50.5 C191.65,50.5 227.61,50.5 256.98,50.5 " fill="none" id="Person-Benutzer" style="stroke:#A80036;stroke-width:1.0;"/><text fill="#000000" font-family="sans-serif" font-size="13" lengthAdjust="spacingAndGlyphs" textLength="0" x="238.5" y="44.0684"/><text fill="#000000" font-family="sans-serif" font-size="13" lengthAdjust="spacingAndGlyphs" textLength="8" x="168.045" y="47.352">1</text><text fill="#000000" font-family="sans-serif" font-size="13" lengthAdjust="spacingAndGlyphs" textLength="24" x="224.8261" y="63.9613">0..1</text><!--MD5=[cbb8d61fdc9d5395e69df996a015f440]
PlantUML version 1.2020.26(Mon Dec 21 18:45:07 CET 2020)
(GPL source distribution)
Java Runtime: OpenJDK Runtime Environment
JVM: OpenJDK 64-Bit Server VM
Default Encoding: UTF-8
Language: en
Country: GB
--></g></svg>